<?xml version="1.0" encoding="UTF-8"?>
<svg width="415px" height="326px" viewBox="0 0 415 326" version="1.1" xmlns="http://www.w3.org/2000/svg" xmlns:xlink="http://www.w3.org/1999/xlink">
    <!-- Generator: Sketch 54.1 (76490) - https://sketchapp.com -->
    <title>Fill 1</title>
    <desc>Created with Sketch.</desc>
    <g id="Page-1" stroke="none" stroke-width="1" fill="none" fill-rule="evenodd" opacity="0.497860863">
        <g id="LANDING-V3" transform="translate(-944.000000, -887.000000)" fill="#F6F5F9">
            <g id="Blob-3" transform="translate(944.000000, 887.000000)">
                <path d="M256.428911,39.1791519 C222.829445,55.2863939 200.445771,35.135138 176.396466,31.2478502 C155.657148,27.895172 135.084308,20.5937567 114.215724,22.25289 C82.4751071,24.7747725 53.2933645,48.5224999 34.2540866,80.4933833 C15.2148088,112.465496 5.47385126,151.919684 1.40002163,191.505375 C-0.651582477,211.434638 -1.23425763,232.447868 5.22805049,250.834751 C18.9321783,289.825612 58.8890045,319.572672 92.614634,314.597731 C126.339284,309.624018 155.885856,302.919759 196.397938,300.850143 C236.910019,298.780528 271.707431,308.782161 310.45386,323.768436 C322.061337,328.257928 336.376569,326.348631 358.512185,314.597731 C380.647801,302.846831 385.573908,285.740566 395.918105,270.617874 C424.088245,229.43327 418.478895,178.06148 395.918105,131.753227 C382.706558,104.631929 361.483473,83.3974809 353.330917,53.3008037 C349.40496,38.8085819 348.271926,21.8829647 339.219406,11.6258342 C334.234841,5.97986518 327.555131,3.33508387 320.976288,1.64891289 C285.606437,-7.4099547 290.028377,23.0719099 256.428911,39.1791519 Z" id="Fill-1"></path>
            </g>
        </g>
    </g>
</svg>