<?xml version="1.0" encoding="UTF-8"?>
<svg width="397px" height="301px" viewBox="0 0 397 301" version="1.1" xmlns="http://www.w3.org/2000/svg" xmlns:xlink="http://www.w3.org/1999/xlink">
    <!-- Generator: Sketch 54.1 (76490) - https://sketchapp.com -->
    <title>Clip 7</title>
    <desc>Created with Sketch.</desc>
    <defs>
        <path d="M216.897299,6.98535116 C189.901264,11.2492016 162.915286,15.514047 135.674198,13.4194367 L135.674198,13.4194367 C98.4152068,10.5556418 70.606291,14.5677409 49.4823778,29.278771 L49.4823778,29.278771 C16.0381631,52.5702404 -5.7431864,108.059999 1.3359122,150.099475 L1.3359122,150.099475 C5.69748548,175.995027 19.2604239,199.209876 36.0337364,218.180777 L36.0337364,218.180777 C79.9429839,267.840454 141.912071,305.766334 206.980892,300.513389 L206.980892,300.513389 C224.181218,299.125275 240.182797,286.551643 257.715042,283.801285 L257.715042,283.801285 C279.534795,280.378264 301.971752,282.829107 323.674465,286.064061 L323.674465,286.064061 C335.86584,287.881048 348.381818,289.950782 360.3574,286.875038 L360.3574,286.875038 C382.326196,281.232029 398.741073,256.610159 396.851972,232.133568 L396.851972,232.133568 C394.422476,200.639784 366.267926,175.284551 368.274981,143.756935 L368.274981,143.756935 C369.334743,127.126426 378.710754,112.755708 385.382041,97.7491433 L385.382041,97.7491433 C412.136681,37.5736268 341.899807,3.762338 297.595549,0.505492648 L297.595549,0.505492648 C292.852681,0.158215219 288.114384,0 283.387061,0 L283.387061,0 C261.119263,0 239.00691,3.49267558 216.897299,6.98535116 L216.897299,6.98535116 Z" id="path-1"></path>
    </defs>
    <g id="Page-1" stroke="none" stroke-width="1" fill="none" fill-rule="evenodd">
        <g id="LANDING-V3" transform="translate(-82.000000, -850.000000)">
            <g id="Blob-1" transform="translate(82.000000, 850.000000)">
                <mask id="mask-2" fill="white">
                    <use xlink:href="#path-1"></use>
                </mask>
                <use id="Clip-7" fill="#F6F5F9" opacity="0.497860863" xlink:href="#path-1"></use>
            </g>
        </g>
    </g>
</svg>