<?xml version="1.0" encoding="UTF-8"?>
<svg width="331px" height="295px" viewBox="0 0 331 295" version="1.1" xmlns="http://www.w3.org/2000/svg" xmlns:xlink="http://www.w3.org/1999/xlink">
    <!-- Generator: Sketch 54.1 (76490) - https://sketchapp.com -->
    <title>Blue blob</title>
    <desc>Created with Sketch.</desc>
    <g id="Page-1" stroke="none" stroke-width="1" fill="none" fill-rule="evenodd">
        <g id="LANDING-V3" transform="translate(-563.000000, -1047.000000)" fill="#3517D0">
            <g id="Blob-2" transform="translate(533.000000, 1027.000000)">
                <path d="M351.279794,175.587246 C347.201428,155.360201 331.859931,137.736839 329.396459,117.445127 C327.145132,98.8840989 330.463675,79.8857199 318.570606,62.8800946 C309.688687,50.1765028 294.979293,41.2201728 278.230717,35.5652451 C242.7853,23.6002144 201.560034,24.5123544 163.783195,25.5827575 C128.643006,26.5782835 95.2151255,33.7239475 68.082302,55.6935885 C43.4194444,75.6653706 31.3640197,105.93957 41.8023853,132.536279 C48.1537259,148.718256 73.1568747,169.948675 68.3643246,181.339191 C63.5717745,192.729707 61.8661425,190.07274 48.042127,201.355367 C34.3328426,212.5461 24.0092081,226.738727 21.5349128,242.153212 C19.0606175,257.565996 25.1781665,274.156393 39.7208749,284.678337 C51.5057075,293.205825 67.4684839,297.130069 83.1173734,299.81884 C112.311027,304.837312 142.29481,306.419943 172.174686,306.843679 C250.93867,307.956626 325.833301,314.045335 349.498214,243.62166 C356.323633,223.31293 355.953463,202.080149 352.368657,181.386823 C352.033122,179.448525 351.669446,177.515333 351.279794,175.587246 Z" id="Blue-blob" transform="translate(187.947230, 166.229140) rotate(-9.000000) translate(-187.947230, -166.229140) "></path>
            </g>
        </g>
    </g>
</svg>