<?xml version="1.0" encoding="UTF-8"?>
<svg width="402px" height="424px" viewBox="0 0 402 424" version="1.1" xmlns="http://www.w3.org/2000/svg" xmlns:xlink="http://www.w3.org/1999/xlink">
    <!-- Generator: Sketch 54.1 (76490) - https://sketchapp.com -->
    <title>Man with phone</title>
    <desc>Created with Sketch.</desc>
    <defs>
        <filter x="-38.9%" y="-38.8%" width="177.7%" height="177.7%" filterUnits="objectBoundingBox" id="filter-1">
            <feGaussianBlur stdDeviation="4.9" in="SourceGraphic"></feGaussianBlur>
        </filter>
        <path d="M6.25959391,3.55702831 L2.94469523,7.01385864 C-1.91412887,18.512733 1.03364498,31.9199936 6.41198535,43.1899542 L6.41198535,43.1899542 C8.68631217,47.9555243 12.0327667,53.0001072 17.2286991,53.883391 L17.2286991,53.883391 C21.1539332,54.5493222 25.1107231,52.5553823 28.0123177,49.8261435 L28.0123177,49.8261435 C32.524028,45.5800614 35.1400811,39.5234788 35.7658096,33.3512832 L35.7658096,33.3512832 C36.3915381,27.1790876 35.1239183,20.9082355 32.7356828,15.1838478 L32.7356828,15.1838478 C30.1357924,8.95307494 25.6948903,2.90574144 19.2128665,1.06672312 L19.2128665,1.06672312 C17.9390895,0.705239633 16.6160547,0.528737036 15.2937896,0.528737036 L15.2937896,0.528737036 C12.0612438,0.528737036 8.82408019,1.58081583 6.25959391,3.55702831 L6.25959391,3.55702831 Z" id="path-2"></path>
        <path d="M6.25959391,3.55702831 L2.94469523,7.01385864 C-1.91412887,18.512733 1.03364498,31.9199936 6.41198535,43.1899542 L6.41198535,43.1899542 C8.68631217,47.9555243 12.0327667,53.0001072 17.2286991,53.883391 L17.2286991,53.883391 C21.1539332,54.5493222 25.1107231,52.5553823 28.0123177,49.8261435 L28.0123177,49.8261435 C32.524028,45.5800614 35.1400811,39.5234788 35.7658096,33.3512832 L35.7658096,33.3512832 C36.3915381,27.1790876 35.1239183,20.9082355 32.7356828,15.1838478 L32.7356828,15.1838478 C30.1357924,8.95307494 25.6948903,2.90574144 19.2128665,1.06672312 L19.2128665,1.06672312 C17.9383198,0.706010386 16.6160547,0.527966282 15.2930199,0.527966282 L15.2930199,0.527966282 C12.0612438,0.527966282 8.82331054,1.58081583 6.25959391,3.55702831 L6.25959391,3.55702831 Z" id="path-4"></path>
    </defs>
    <g id="Page-1" stroke="none" stroke-width="1" fill="none" fill-rule="evenodd">
        <g id="LANDING-V3" transform="translate(-881.000000, -3338.000000)">
            <g id="Man-with-phone" transform="translate(881.000000, 3338.000000)">
                <g id="Group-2" opacity="0.731212798">
                    <g id="Group-9">
                        <path d="M170.160304,0 L36.0690501,0 C16.0793549,0 0,16.7392283 0,36.6908174 L0,352.223739 C0,372.163617 16.0793549,388.257851 36.0690501,388.257851 L170.160304,388.257851 C190.160836,388.257851 205.902439,372.163617 205.902439,352.223739 L205.902439,36.6908174 C205.902439,16.7392283 190.160836,0 170.160304,0 L170.160304,0 Z" id="Path" fill="#BFBBD7" opacity="0.482700893"></path>
                        <path d="M194.871951,352.022594 C194.871951,365.93177 183.955013,377.227799 170.019109,377.227799 L36.2095588,377.227799 C22.2844692,377.227799 11.0304878,365.93177 11.0304878,352.022594 L11.0304878,36.726652 C11.0304878,22.8174768 22.2844692,11.7653894 36.2095588,11.7653894 L57.8920373,11.7653894 L57.8920373,19.2141614 C57.8920373,23.9084631 61.6995382,27.9681563 66.3992109,27.9681563 L139.840271,27.9681563 C144.539944,27.9681563 148.911585,23.9084631 148.911585,19.2141614 L148.911585,11.7653894 L170.019109,11.7653894 C183.955013,11.7653894 194.871951,22.8174768 194.871951,36.726652 L194.871951,352.022594 Z" id="Path" fill="#F6F5F9"></path>
                        <path d="M112.009256,19.8165633 L82.1273298,19.8165633 C80.632238,19.8165633 79.4195122,18.6660919 79.4195122,17.2477495 C79.4195122,15.8294072 80.632238,14.6789358 82.1273298,14.6789358 L112.009256,14.6789358 C113.504347,14.6789358 114.717073,15.8294072 114.717073,17.2477495 C114.717073,18.6660919 113.504347,19.8165633 112.009256,19.8165633" id="Fill-3" fill="#BFBBD7"></path>
                        <path d="M124.276829,17.2477495 C124.276829,18.6663866 123.124429,19.8165633 121.703049,19.8165633 C120.281669,19.8165633 119.129268,18.6663866 119.129268,17.2477495 C119.129268,15.8291125 120.281669,14.6789358 121.703049,14.6789358 C123.124429,14.6789358 124.276829,15.8291125 124.276829,17.2477495" id="Fill-5" fill="#BFBBD7"></path>
                    </g>
                    <g id="Group" transform="translate(32.916376, 49.057851)">
                        <path d="M32.6948603,37.8446281 L5.17807535,37.8446281 C2.33341259,37.8446281 0.0266876334,35.5363287 0.0266876334,32.6897244 L0.0266876334,5.15415816 C0.0266876334,2.30755381 2.33341259,0 5.17807535,0 L32.6948603,0 C35.5395231,0 37.845503,2.30755381 37.845503,5.15415816 L37.845503,32.6897244 C37.845503,35.5363287 35.5395231,37.8446281 32.6948603,37.8446281" id="Fill-9" fill="#E0DEEC"></path>
                        <path d="M84.8574747,37.8446281 L57.3406897,37.8446281 C54.496027,37.8446281 52.189302,35.5363287 52.189302,32.6897244 L52.189302,5.15415816 C52.189302,2.30755381 54.496027,0 57.3406897,0 L84.8574747,0 C87.7021374,0 90.0081173,2.30755381 90.0081173,5.15415816 L90.0081173,32.6897244 C90.0081173,35.5363287 87.7021374,37.8446281 84.8574747,37.8446281" id="Fill-9" fill="#E0DEEC"></path>
                        <path d="M137.020089,37.8446281 L109.503304,37.8446281 C106.658641,37.8446281 104.351916,35.5363287 104.351916,32.6897244 L104.351916,5.15415816 C104.351916,2.30755381 106.658641,0 109.503304,0 L137.020089,0 C139.864752,0 142.170732,2.30755381 142.170732,5.15415816 L142.170732,32.6897244 C142.170732,35.5363287 139.864752,37.8446281 137.020089,37.8446281" id="Fill-9" fill="#BFBBD7"></path>
                    </g>
                    <g id="Group" transform="translate(32.916376, 105.123967)" fill="#BFBBD7">
                        <path d="M32.6681727,37.8446281 L5.15138772,37.8446281 C2.30672496,37.8446281 0,35.5363287 0,32.6897244 L0,5.15415816 C0,2.30755381 2.30672496,0 5.15138772,0 L32.6681727,0 C35.5128354,0 37.8188153,2.30755381 37.8188153,5.15415816 L37.8188153,32.6897244 C37.8188153,35.5363287 35.5128354,37.8446281 32.6681727,37.8446281" id="Fill-9"></path>
                        <path d="M137.020089,37.8446281 L109.503304,37.8446281 C106.658641,37.8446281 104.351916,35.5363287 104.351916,32.6897244 L104.351916,5.15415816 C104.351916,2.30755381 106.658641,0 109.503304,0 L137.020089,0 C139.864752,0 142.170732,2.30755381 142.170732,5.15415816 L142.170732,32.6897244 C142.170732,35.5363287 139.864752,37.8446281 137.020089,37.8446281" id="Fill-9"></path>
                    </g>
                    <g id="Group" transform="translate(32.916376, 116.337190)">
                        <path d="M32.6948603,82.6975207 L5.17807535,82.6975207 C2.33341259,82.6975207 0.0266876334,80.3892213 0.0266876334,77.5426169 L0.0266876334,50.0070507 C0.0266876334,47.1604464 2.33341259,44.8528926 5.17807535,44.8528926 L32.6948603,44.8528926 C35.5395231,44.8528926 37.845503,47.1604464 37.845503,50.0070507 L37.845503,77.5426169 C37.845503,80.3892213 35.5395231,82.6975207 32.6948603,82.6975207" id="Fill-9" fill="#E0DEEC"></path>
                        <path d="M84.8574747,82.6975207 L57.3406897,82.6975207 C54.496027,82.6975207 52.189302,80.3892213 52.189302,77.5426169 L52.189302,50.0070507 C52.189302,47.1604464 54.496027,44.8528926 57.3406897,44.8528926 L84.8574747,44.8528926 C87.7021374,44.8528926 90.0081173,47.1604464 90.0081173,50.0070507 L90.0081173,77.5426169 C90.0081173,80.3892213 87.7021374,82.6975207 84.8574747,82.6975207" id="Fill-9" fill="#E0DEEC"></path>
                        <path d="M84.8574747,37.8446281 L57.3406897,37.8446281 C54.496027,37.8446281 52.189302,35.5363287 52.189302,32.6897244 L52.189302,5.15415816 C52.189302,2.30755381 54.496027,0 57.3406897,0 L84.8574747,0 C87.7021374,0 90.0081173,2.30755381 90.0081173,5.15415816 L90.0081173,32.6897244 C90.0081173,35.5363287 87.7021374,37.8446281 84.8574747,37.8446281" id="Fill-9" fill="#CECCD9" opacity="0.797363281" filter="url(#filter-1)"></path>
                        <path d="M137.020089,82.6975207 L109.503304,82.6975207 C106.658641,82.6975207 104.351916,80.3892213 104.351916,77.5426169 L104.351916,50.0070507 C104.351916,47.1604464 106.658641,44.8528926 109.503304,44.8528926 L137.020089,44.8528926 C139.864752,44.8528926 142.170732,47.1604464 142.170732,50.0070507 L142.170732,77.5426169 C142.170732,80.3892213 139.864752,82.6975207 137.020089,82.6975207" id="Fill-9" fill="#E0DEEC"></path>
                    </g>
                    <g id="Group" transform="translate(32.916376, 323.781818)">
                        <path d="M32.6948603,37.8446281 L5.17807535,37.8446281 C2.33341259,37.8446281 0.0266876334,35.5363287 0.0266876334,32.6897244 L0.0266876334,5.15415816 C0.0266876334,2.30755381 2.33341259,0 5.17807535,0 L32.6948603,0 C35.5395231,0 37.845503,2.30755381 37.845503,5.15415816 L37.845503,32.6897244 C37.845503,35.5363287 35.5395231,37.8446281 32.6948603,37.8446281" id="Fill-9" fill="#BFBBD7"></path>
                        <path d="M84.8574747,37.8446281 L57.3406897,37.8446281 C54.496027,37.8446281 52.189302,35.5363287 52.189302,32.6897244 L52.189302,5.15415816 C52.189302,2.30755381 54.496027,0 57.3406897,0 L84.8574747,0 C87.7021374,0 90.0081173,2.30755381 90.0081173,5.15415816 L90.0081173,32.6897244 C90.0081173,35.5363287 87.7021374,37.8446281 84.8574747,37.8446281" id="Fill-9" fill="#E0DEEC"></path>
                        <path d="M137.020089,37.8446281 L109.503304,37.8446281 C106.658641,37.8446281 104.351916,35.5363287 104.351916,32.6897244 L104.351916,5.15415816 C104.351916,2.30755381 106.658641,0 109.503304,0 L137.020089,0 C139.864752,0 142.170732,2.30755381 142.170732,5.15415816 L142.170732,32.6897244 C142.170732,35.5363287 139.864752,37.8446281 137.020089,37.8446281" id="Fill-9" fill="#E0DEEC"></path>
                    </g>
                </g>
                <g id="Group-39" transform="translate(102.250871, 77.090909)">
                    <polygon id="Fill-1" fill="#B27A6D" points="57.2852918 314.018873 51.9569789 336.37073 46.3046418 338.72307 41.3011228 336.37073 36.5400448 314.018873"></polygon>
                    <polygon id="Fill-2" fill="#B27A6D" points="243.392339 316.345778 260.670296 321.599235 269.432035 323.677958 275.329172 330.498897 243.509327 337.120673"></polygon>
                    <g id="Group-21" transform="translate(0.000000, 12.193883)">
                        <path d="M132.805872,187.432424 C132.797406,203.040957 129.269313,232.772781 129.260847,248.381314 C129.271622,228.562153 132.866675,294.679717 141.450623,315.051508 C142.668985,317.942606 144.155956,320.891509 146.7266,322.699697 C149.876792,324.914844 154.009833,324.994231 157.865029,324.990377 C195.657337,324.955693 211.89857,324.920239 249.690878,324.885555 C250.154209,320.543899 250.992362,307.703143 250.405886,306.337367 C249.967183,305.315348 246.917815,303.625856 242.961025,301.89166 C237.103191,299.323509 230.981365,297.418976 224.742552,296.078635 C208.923089,292.678841 200.854039,289.857112 183.148154,293.108921 C181.760469,293.364041 180.211925,293.626868 179.031276,292.854573 C177.673607,291.930439 179.063602,281.931451 179.169044,280.621941 C179.708572,273.91253 180.497467,267.218534 181.429517,260.555368 C182.508572,252.838582 183.910111,245.527213 186.790925,238.290606 C189.633257,231.154969 192.179271,223.731069 192.076138,215.928729 C191.971465,208.042377 189.141448,200.505177 186.332981,193.2678 C185.681854,191.589869 184.845241,189.881108 183.365966,188.84984 C182.099886,187.967327 179.249858,185.438484 177.722095,185.210341 C162.443699,182.935847 148.028084,185.65969 132.915163,188.848298" id="Fill-3" fill="#0D0545"></path>
                        <path d="M17.7019227,70.3745912 C18.4130828,69.7109723 19.6006585,69.9491352 20.5534898,69.7572175 C21.0714668,69.652395 20.524243,68.6272926 20.9537098,68.4885569 C20.9406257,68.4793079 21.3977483,67.4782076 21.3846642,67.4681878 C20.6196284,66.9078499 19.7984595,66.9208439 19.0703671,66.3127192 C17.7588771,65.2159367 15.638481,65.7647133 14.487079,67.0295202 C13.335677,68.2935562 12.9123674,70.0423964 12.5506302,71.7149319 C12.1504102,73.5647408 11.8317736,75.6426927 12.579877,77.3090622 C12.7930711,76.6200084 13.0278155,76.0188205 13.2233076,75.6087796 C14.1053308,73.7566584 16.1818566,71.792778 17.7019227,70.3745912 Z" id="Fill-5" fill="#B27A6D"></path>
                        <path d="M37.1123188,68.0599607 L8.08713673,68.0599607 C3.981034,68.0599607 0.652281549,64.7264509 0.652281549,60.6137092 L0.652281549,31.8776991 C0.652281549,28.1171918 3.69549246,25.0696317 7.45063308,25.0696317 L35.3228738,25.0696317 C38.7393668,25.0696317 41.508581,27.8428035 41.508581,31.2634084 L43.2980259,61.8654132 C43.2980259,65.2867889 40.5288118,68.0599607 37.1123188,68.0599607" id="Fill-7" fill="#0E005E"></path>
                        <path d="M38.2156174,63.8945765 L9.7907653,63.8945765 C6.8522273,63.8945765 4.4693793,61.508323 4.4693793,58.5655854 L4.4693793,30.1001099 C4.4693793,27.1573723 6.8522273,24.7718896 9.7907653,24.7718896 L38.2156174,24.7718896 C41.1541554,24.7718896 43.5362338,27.1573723 43.5362338,30.1001099 L43.5362338,58.5655854 C43.5362338,61.508323 41.1541554,63.8945765 38.2156174,63.8945765" id="Fill-9" fill="#411CFF"></path>
                        <path d="M31.4246181,78.7278656 C31.7709623,75.6741395 31.031325,73.3526293 30.3863552,70.8230157 C29.5558988,67.5611861 28.0281361,65.5394991 28.8000988,62.2637959 C29.1356679,60.8402138 29.0348432,59.0659388 28.6808025,57.6616256 C28.5568882,57.1714262 27.9757997,56.2233992 27.3693125,56.2842887 C26.6319842,56.3598226 26.1971299,56.705891 25.8361622,57.2500431 C25.4028472,57.9051837 25.2781633,58.9487843 25.158867,59.7072059 C24.838691,61.7373711 25.2658488,63.7891175 24.7101588,65.7961601 C24.2475969,67.4679249 22.6351723,69.4587817 21.0766235,69.3377733 C20.2738746,69.6468456 19.3918514,69.3593544 18.4090036,69.6198692 C16.3417136,70.1686458 15.3488603,72.1710639 14.2097728,73.7958127 C13.2323125,75.1885647 12.8197781,75.2217071 12.4749732,76.8849935 C13.6156001,78.2530814 15.4997124,78.7317194 17.1575466,79.421544 C20.9634844,81.0069843 23.6434187,85.482751 25.72995,89.0428624 C27.8164813,92.6029737 30.9997692,100.025332 30.9997692,100.025332 C30.9997692,100.025332 34.868049,95.4524501 38.2206607,93.5987875 C34.0529856,90.1843486 30.8173613,84.0861453 31.4246181,78.7278656" id="Fill-11" fill="#B27A6D"></path>
                        <path d="M144.467281,238.399591 C154.799113,235.854562 163.181412,229.482741 168.027922,219.068317 C173.212309,207.927843 172.92061,194.465859 166.34238,183.956633 C165.731275,182.980088 165.070142,182.035144 164.365139,181.123342 C164.171956,180.875159 156.273,180.672451 155.997464,180.519842 C155.634957,180.319446 155.198563,180.3233 154.78449,180.331778 C145.126874,180.535257 130.869808,180.484387 121.211424,180.54836 C110.434732,180.502115 99.600316,180.152192 88.8282422,180.502115 C75.7425892,180.927571 51.5608381,178.705488 40.8318649,188.592716 C36.7280712,193.112416 35.0179005,199.471905 33.9319191,205.641788 C27.4152608,242.664171 37.2791432,304.958026 37.3291707,312.474416 C43.410205,312.183072 58.7247752,313.10181 58.7247752,313.10181 C58.7247752,313.10181 80.3674385,264.031005 65.1344516,233.580839 C64.9543526,232.754591 65.6839844,232.198107 66.5021263,232.071703 C68.3346719,231.791149 71.5025667,233.556945 73.193496,234.106493 C84.114113,237.658126 94.579095,240.018944 106.146991,240.080605 C115.975469,240.133787 125.93094,240.066731 135.75634,239.62586 C138.78031,239.490207 141.694219,239.082479 144.467281,238.399591" id="Fill-13" fill="#0F0064"></path>
                        <path d="M105.052389,75.0731828 C105.053929,76.1144711 121.262067,70.8517648 127.650193,67.4720099 C129.277241,66.611078 131.01204,65.6406991 131.788621,63.9689343 C126.103958,59.4037602 121.392908,53.627732 118.061077,47.1379858 C117.624683,46.2870737 117.185211,45.3922287 116.424023,44.8141634 C115.500439,44.1143191 114.270532,44.0033305 113.113743,43.9655636 C109.776524,43.8568873 106.426991,44.1328172 103.153653,44.7879578 C103.469211,49.4040017 103.785539,54.0200456 104.101867,58.6360895 L105.052389,75.0731828 Z" id="Fill-15" fill="#B27A6D"></path>
                        <path d="M93.2095731,10.0871619 C91.3747185,9.56382017 88.7217221,11.7149937 88.7217221,11.7149937 C88.7217221,11.7149937 87.1231513,8.54103002 86.027934,6.42993564 C83.9267793,11.3234509 84.8411279,18.7450382 87.474883,24.6628851 C88.590881,24.3823308 89.800007,24.3607496 91.1738389,24.6143276 C91.4632287,24.6675096 91.7364558,24.7700199 92.0019864,24.8917989 C92.0758731,23.9946416 92.1366758,23.0512391 92.1813157,22.0423225 C92.2113322,21.3594348 92.9440425,21.4750478 93.2880778,20.886192 C94.3471213,19.0749208 95.5662528,17.2698156 95.8741143,15.1941759 C96.1819758,13.1177655 95.2252962,10.6621442 93.2095731,10.0871619" id="Fill-17" fill="#B27A6D"></path>
                        <path d="M85.9986102,7.01277959 C81.1390164,18.5124247 84.0867903,31.9204561 89.4651306,43.1896459 C91.7402271,47.9559867 95.0851423,52.9997989 100.281844,53.8823119 C104.207078,54.5497846 108.163868,52.555074 111.065463,49.8250644 C115.577943,45.5805238 118.193226,39.5239413 118.819724,33.3517457 C119.445453,27.1795501 118.177064,20.9071565 115.788828,15.1835395 C113.189707,8.9535374 108.748036,2.90543314 102.266781,1.06641482 C97.8782157,-0.179893913 92.9270332,0.772757657 89.3127392,3.55749076" id="Fill-19" fill="#B27A6D"></path>
                    </g>
                    <g id="Group-24" transform="translate(83.053299, 12.193883)">
                        <mask id="mask-3" fill="white">
                            <use xlink:href="#path-2"></use>
                        </mask>
                        <g id="Clip-23"></g>
                        <polygon id="Fill-22" fill="#B27A6D" mask="url(#mask-3)" points="1903.52319 4607.16751 373.809433 4911.24294 -637.273147 -189.770736 892.44061 -493.846172"></polygon>
                    </g>
                    <g id="Group-27" transform="translate(83.053299, 12.193883)">
                        <mask id="mask-5" fill="white">
                            <use xlink:href="#path-4"></use>
                        </mask>
                        <g id="Clip-26"></g>
                        <path d="M9.94000116,39.7871537 C8.27447045,42.0462328 5.70690556,42.9665127 3.0954704,41.5845513 C0.88656415,40.4153179 -0.252523394,36.8644557 1.28986271,34.7464245 C1.01894459,34.5745464 0.761880243,34.3795457 0.522517928,34.1591102 C-1.49782315,32.3031353 -1.29001664,28.9673133 0.522517928,27.0743422 C2.70217734,24.796765 5.00421169,24.0383434 8.1205397,24.6140964 C9.81993518,24.9277931 11.1452789,26.5425221 11.6147677,28.1133182 C12.7253781,31.8268095 12.2835968,36.6085654 9.94000116,39.7871537 L9.94000116,39.7871537 Z M34.3341766,-9.07940148 L-9.84163941,-0.298204605 L2.69140218,62.9328872 L46.8672182,54.1516903 L34.3341766,-9.07940148 Z" id="Fill-25" fill="#B27A6D" mask="url(#mask-5)"></path>
                    </g>
                    <g id="Group-38" transform="translate(14.692726, 0.562650)">
                        <path d="M167.559628,117.006212 C163.819111,105.329293 155.88398,95.3017876 146.317184,87.6482034 C138.61295,81.4821739 126.767979,74.8613996 116.931804,74.1831363 C113.486065,73.9457442 98.9880969,77.613761 96.1480746,79.2963164 C94.3994213,80.3329801 92.7069527,81.4644465 91.0498882,82.6421582 C86.6228398,85.7860625 82.1619267,88.8359349 78.9478527,93.3063063 C77.0514259,95.945367 56.6263548,130.875925 56.8603295,131.057052 C45.1154133,121.95445 33.3704972,112.851849 21.625581,103.756956 L15.9070537,108.211912 C15.4837441,108.543336 15.0296484,108.928713 14.93729,109.452826 C14.8449315,110.007768 15.1681861,110.531881 15.4914407,110.994333 C20.3017766,117.969654 31.7157416,137.546798 33.2088699,140.051747 C34.5865501,142.356301 36.4106295,144.36026 38.2577985,146.310267 C42.6448248,150.942497 47.3320161,155.497651 53.1352054,158.125921 C58.9383946,160.754192 66.1192641,161.147276 71.4375714,157.632639 C73.6818818,156.145084 89.3912844,145.402319 89.5444455,145.298268 C90.7720432,144.458146 96.5975524,149.088834 97.5072831,149.852651 C100.345766,152.236592 102.667042,155.244073 104.213276,158.618433 C107.332683,165.42573 106.701567,173.066982 104.448021,180.076987 C103.078807,184.337713 91.8664908,192.013649 86.9214655,192.15778 C94.0792453,203.757623 115.892772,206.714235 129.146209,203.584975 C135.988431,201.966392 142.199537,198.181991 149.103331,196.833172 C156.007125,195.484353 169.635384,200.343184 172.090579,206.940836 C177.370404,193.352448 172.054406,131.041637 167.559628,117.006212" id="Fill-28" fill="#FBB644"></path>
                        <path d="M22.8201566,334.907454 C18.5724376,332.817941 13.3703479,332.78634 9.09723031,334.823442 C4.82411271,336.860544 1.56924702,340.923957 0.510203468,345.543084 C13.6705129,344.306795 26.3220811,344.65903 39.5378056,344.891797 C38.621148,341.773328 37.9553975,338.580866 37.54979,335.356033 C34.4657874,337.233589 29.9679309,337.493333 26.6222461,335.225004 C25.8141097,335.201111 25.0052036,335.174135 24.1962975,335.144846" id="Fill-30" fill="#05021A"></path>
                        <path d="M118.001623,23.2595167 C116.847142,20.9318405 114.969187,19.0820316 112.737191,17.7409202 C111.6058,11.6905037 107.234167,6.16419966 101.323226,4.26043803 C95.9356502,2.53394974 81.2352636,4.1294099 81.2352636,4.1294099 C81.2352636,4.1294099 70.1753393,4.63810734 70.1753393,0.0135851555 C65.3496103,6.00234138 70.7064004,6.9657835 69.4364717,11.7598715 C67.8571422,17.7216513 64.9863337,24.2769115 68.4782528,30.1099755 C69.9082695,32.499312 72.0001883,34.2481521 74.0097543,36.094878 C74.7801777,36.038613 75.595241,36.0817752 76.4811124,36.2451749 C78.1805079,36.5588717 79.5058517,38.1736007 79.9753404,39.7443967 C80.7226742,42.2447217 80.7634659,45.2267678 79.9976604,47.879702 C82.0410911,52.579758 85.5945824,58.9693062 88.9556603,60.9331866 C91.5801796,62.4592789 94.3509331,64.0316165 97.3833689,64.1163994 C102.624711,64.2474275 108.134662,58.35964 111.020864,53.9894666 C114.538181,48.671266 117.101128,42.7210475 118.548077,36.5164802 C119.579413,32.1154766 120.002723,27.298266 118.001623,23.2595167" id="Fill-32" fill="#222D3D"></path>
                        <path d="M259.68392,330.331817 C260.050275,330.506778 260.35198,330.785021 260.576718,331.123381 C263.081941,334.893908 267.270397,337.509076 271.761327,338.071726 C276.456984,338.660582 281.385077,336.992671 284.761548,333.671493 C273.008935,327.614911 262.538566,320.493917 251.528669,313.169445 C250.624326,316.290997 249.467536,319.340099 248.074463,322.2759 C251.683369,322.3576 258.203876,325.442927 258.804976,329.913298 L259.68392,330.331817 Z" id="Fill-34" fill="#05021A"></path>
                        <path d="M89.7785741,145.209092 C90.3127138,143.229025 94.8428958,136.367776 99.4100211,136.806335 C102.877311,137.13853 105.905129,139.537886 107.723821,142.512995 C109.541743,145.488104 110.306009,148.988097 110.737785,152.449552 C111.191881,156.089051 111.311947,159.77017 111.095674,163.43125 C110.928659,166.259916 110.586163,169.235026 111.760655,171.813197 C112.408703,173.235237 113.475443,174.42374 114.228934,175.792598 C117.334487,181.437598 112.811232,186.402023 108.16945,190.866228 C105.079291,193.838255 100.88006,196.149745 96.6562,195.434485 C92.8140885,194.783969 85.3853906,193.10758 86.9216194,192.158011 C92.7786844,191.959928 102.370879,183.948714 103.379125,181.983292 C105.904359,177.986934 108.028604,167.423755 104.21343,158.617894 C101.637399,151.357394 91.019256,144.805217 89.7785741,145.209092" id="Fill-36" fill="#E0A33D"></path>
                    </g>
                </g>
            </g>
        </g>
    </g>
</svg>