<?xml version="1.0" encoding="UTF-8"?>
<svg width="632px" height="680px" viewBox="0 0 632 680" version="1.1" xmlns="http://www.w3.org/2000/svg" xmlns:xlink="http://www.w3.org/1999/xlink">
    <!-- Generator: Sketch 54.1 (76490) - https://sketchapp.com -->
    <title>Group</title>
    <desc>Created with Sketch.</desc>
    <defs>
        <path d="M589.95098,4.96584656 L0.717761759,0 C0.601724994,6.31712516 3.55547696,44.8645453 4.63039118,51.0970098 C9.8619402,81.4370434 29.434374,108.928336 56.2586559,123.616958 C69.9671853,131.123836 85.3074255,135.403701 98.5572049,143.705849 C137.600428,168.172775 121.441634,201.375059 140.86205,235.013255 C159.130195,266.657423 191.819281,290.352496 227.861739,295.910378 C248.992124,299.170713 270.512896,296.774096 291.871756,295.930192 C314.813754,295.023242 337.825014,295.919384 360.629386,298.60871 C373.073205,300.074961 386.413835,302.557139 395.071617,311.695085 C400.169139,317.073738 403.026881,324.170821 405.665144,331.1211 C422.267396,374.849224 437.998923,424.235201 478.370722,447.327743 C506.43093,463.377239 541.841009,466.16324 572.743693,458.70109 C650.451161,439.936869 594.560069,16.4022388 589.95098,4.96584656 Z" id="path-1"></path>
        <filter x="-4.3%" y="-5.7%" width="108.6%" height="111.5%" filterUnits="objectBoundingBox" id="filter-2">
            <feMorphology radius="10" operator="erode" in="SourceAlpha" result="shadowSpreadInner1"></feMorphology>
            <feGaussianBlur stdDeviation="16.5" in="shadowSpreadInner1" result="shadowBlurInner1"></feGaussianBlur>
            <feOffset dx="10" dy="-9" in="shadowBlurInner1" result="shadowOffsetInner1"></feOffset>
            <feComposite in="shadowOffsetInner1" in2="SourceAlpha" operator="arithmetic" k2="-1" k3="1" result="shadowInnerInner1"></feComposite>
            <feColorMatrix values="0 0 0 0 0   0 0 0 0 0   0 0 0 0 0  0 0 0 0.290619537 0" type="matrix" in="shadowInnerInner1"></feColorMatrix>
        </filter>
        <filter x="-9.2%" y="-12.8%" width="118.3%" height="125.6%" filterUnits="objectBoundingBox" id="filter-3">
            <feGaussianBlur stdDeviation="11" in="SourceGraphic"></feGaussianBlur>
        </filter>
        <path d="M12.3614916,2.19664516 L0.458878378,15.7883871 C1.26828885,15.1299355 2.02580236,14.42 2.72231419,13.6712258 L2.72231419,13.6712258 L14.6249274,0.0803870968 C13.9284155,0.828258065 13.170902,1.53909677 12.3614916,2.19664516" id="path-4"></path>
        <polygon id="path-6" points="0 0.357587097 16.15261 0.357587097 16.15261 24.7365548 0 24.7365548"></polygon>
        <path d="M0.281336149,14.1580645 C0.275873311,15.1931613 0.338695946,16.2436129 0.473445946,17.2949677 L0.473445946,17.2949677 L12.3751486,3.70322581 C12.2413091,2.65187097 12.177576,1.60141935 12.1839493,0.566322581 L12.1839493,0.566322581" id="path-8"></path>
        <path d="M0.201214527,13.9223226 C1.33384291,14.0388387 2.47557601,14.0930323 3.61639865,14.0776774 L3.61639865,14.0776774 L15.5181014,0.485935484 C14.3781892,0.502193548 13.2355456,0.447096774 12.1029172,0.331483871 L12.1029172,0.331483871" id="path-10"></path>
        <polygon id="path-12" points="0.884888682 0.486025806 20.0394191 0.486025806 20.0394191 23.483871 0.884888682 23.483871"></polygon>
        <polygon id="path-14" points="0.85329527 0.441045161 24.4272615 0.441045161 24.4272615 18.0645161 0.85329527 18.0645161"></polygon>
        <path d="M0.0109256757,13.6775484 C0.820336149,14.5021935 1.67709122,15.2771613 2.56935473,16.0024516 L2.56935473,16.0024516 L14.4728784,2.41070968 C13.5797044,1.68632258 12.7220389,0.911354839 11.9135389,0.0858064516 L11.9135389,0.0858064516" id="path-16"></path>
        <path d="M27.1566774,0.389290323 L15.4844139,4.42219355 L18.4525557,15.3087742 C17.636772,15.9699355 16.8774375,16.6744516 16.1800152,17.4232258 L16.1800152,17.4232258 L4.31746284,14.8083871 L0.0655540541,25.5965161 L10.3630034,32.1792258 C10.3566301,33.2143226 10.4203632,34.2647742 10.5542027,35.316129 L10.5542027,35.316129 L1.04340203,41.028129 L6.69652872,52.2516129 L18.2868497,50.6664516 C19.0953497,51.492 19.9530152,52.2669677 20.8461892,52.9913548 L20.8461892,52.9913548 L19.2492196,63.6837419 L31.4941706,68.7661935 L37.5961605,59.9443871 C38.7287889,60.06 39.8714324,60.1150968 41.0113446,60.0988387 L41.0113446,60.0988387 L48.2641723,69.5059355 L59.9355253,65.4730323 L56.9746672,54.5837419 C57.7840777,53.9261935 58.5415912,53.2153548 59.238103,52.4674839 L59.238103,52.4674839 L71.1006554,55.0814194 L75.3616689,44.2978065 L65.0633091,37.7141935 C65.0696824,36.6781935 65.0023074,35.6304516 64.8630051,34.5736774 L64.8630051,34.5736774 L74.3774476,28.868 L68.7243209,17.6454194 L57.1321791,19.2233548 C56.3264105,18.404129 55.4742078,17.6273548 54.5810338,16.9020645 L54.5810338,16.9020645 L56.1770929,6.20967742 L43.9248581,1.1236129 L37.8219578,9.94541935 C36.6902399,9.82980645 35.5503277,9.78012903 34.4158784,9.79367742 L34.4158784,9.79367742 L27.1566774,0.389290323 Z M23.0786689,40.0002581 C19.1654561,32.2307097 22.5433108,23.6708387 30.6274003,20.8771613 L30.6274003,20.8771613 C38.706027,18.0861935 48.427147,22.1218065 52.3394493,29.8904516 L52.3394493,29.8904516 C56.2526622,37.6590968 52.8775389,46.2243871 44.7989122,49.0162581 L44.7989122,49.0162581 C43.0626402,49.616 41.250799,49.9005161 39.4362264,49.9005161 L39.4362264,49.9005161 C32.8052517,49.8996129 26.1506047,46.0988387 23.0786689,40.0002581 L23.0786689,40.0002581 Z" id="path-18"></path>
        <linearGradient x1="30.7074348%" y1="102.184177%" x2="79.1863513%" y2="-28.9467909%" id="linearGradient-20">
            <stop stop-color="#FF005B" offset="0%"></stop>
            <stop stop-color="#ED0056" offset="100%"></stop>
        </linearGradient>
        <polygon id="path-21" points="0.721 5.643 9.104 23.694 24.778 15.98 21.373 0.499"></polygon>
        <polygon id="path-23" points="0.269 0.91 0.477 1.855 3.583 15.98 35.355 34.324 50.186 29.816 50.67 29.592 50.706 29.251 25.893 9.831 0.662 0.499"></polygon>
        <polygon id="path-25" points="3.55 5.324 0.434 20.879 22.192 19.869 18.828 0.733"></polygon>
        <polygon id="path-27" points="0.821 8.337 0.528 8.945 44.311 34.637 47.55 19.324 15.718 0.946"></polygon>
        <polygon id="path-29" points="3.049 51.172 44.507 26.753 0.178 0.566"></polygon>
        <polygon id="path-31" points="61.075 0.916 41.467 1.73 0.049 26.172 63.192 1.651 63.008 0.869"></polygon>
        <polygon id="path-33" points="0.608 0.735 12.049 69.172 9.269 18.618 0.834 0.66"></polygon>
        <filter x="-19.4%" y="-90.0%" width="138.7%" height="280.0%" filterUnits="objectBoundingBox" id="filter-35">
            <feGaussianBlur stdDeviation="3" in="SourceGraphic"></feGaussianBlur>
        </filter>
        <filter x="-3.6%" y="-42.9%" width="107.1%" height="185.7%" filterUnits="objectBoundingBox" id="filter-36">
            <feGaussianBlur stdDeviation="2" in="SourceGraphic"></feGaussianBlur>
        </filter>
        <polygon id="path-37" points="0 0.539885277 11.1046964 0.539885277 11.1046964 25.2000158 0 25.2000158"></polygon>
    </defs>
    <g id="Page-1" stroke="none" stroke-width="1" fill="none" fill-rule="evenodd">
        <g id="LANDING-V3" transform="translate(-808.000000, 0.000000)">
            <g id="Group" transform="translate(812.000000, -6.000000)">
                <g id="Blobs" transform="translate(38.367647, 0.000000)">
                    <g id="Group-61" transform="translate(0.000000, 2.000000)">
                        <g id="Fill-59">
                            <use fill="#100065" fill-rule="evenodd" xlink:href="#path-1"></use>
                            <use fill="black" fill-opacity="1" filter="url(#filter-2)" xlink:href="#path-1"></use>
                        </g>
                    </g>
                    <g id="Yellow" transform="translate(96.950980, 0.000000)" fill="#FBB644">
                        <path d="M492.365907,388.905289 C492.050441,395.903345 421.910186,371.143978 401.198973,347.159797 C380.485061,323.164809 367.268563,291.549462 361.364181,258.711939 C357.963135,239.805596 356.823456,220.193147 350.413549,202.279315 C349.271171,199.083826 347.95159,196.123405 346.462902,193.36653 C342.325157,185.676822 336.925399,179.636195 330.649519,174.946535 C304.624902,155.425051 263.54249,159.019526 235.184544,164.936765 C216.056468,168.923921 191.273174,172.430133 176.137122,168.130453 C148.755144,159.674295 124.37663,134.672386 118.643154,103.028218 C113.624789,75.3631004 106.340559,69.4638746 81.3899556,67.7913765 C62.8573551,66.5385791 43.2948159,63.2034901 27.7171051,50.5746436 C20.7692914,44.9348036 -11.4225331,9.84822194 4.59143998,2 C8.92887626,-0.121019355 33.9232443,2.83309677 41.0806438,1.90723355 C51.5662296,0.54816 257.118191,0.799156129 350.413549,1 C410.692399,1.13059355 493,2 492.681373,1 C493,2.09832152e-14 492.681373,381.907234 492.365907,388.905289 Z" id="Fill-62"></path>
                    </g>
                    <g id="Blue" transform="translate(318.000000, 1.000000)">
                        <path d="M12.3531789,53.1120876 C8.10212298,67.0413702 11.6090972,84.487892 24.1928883,91.8144153 C30.3619125,95.4058866 37.7302788,96.1218367 44.8391956,96.7576941 C70.4395201,99.0481483 96.0398446,101.339579 121.640169,103.63101 C136.597189,104.969143 152.467667,106.653042 164.31423,115.884208 C194.183233,139.156981 177.838893,188.970698 196.07183,222.160307 C212.396589,251.876631 251.458917,259.888826 285.340087,258.814412 C308.328293,258.084788 332.816412,253.938528 349.560206,238.168092 C365.078225,223.550208 371.207108,201.085198 370.590303,179.772741 C369.973499,158.459308 363.40502,137.824708 356.894306,117.5222 C347.915394,89.5210308 338.936483,61.5208383 329.957572,33.5206458 C326.601372,23.0529281 322.617598,11.7442377 313.342033,5.84766108 C305.811143,1.06261405 296.344663,0.889731153 287.423516,0.908289204 C230.979049,1.02061425 174.536541,2.70842018 118.187043,5.96584656 C73.8368402,8.52978786 27.974977,1.91433093 12.3531789,53.1120876" id="Fill-65" fill="#28119E" filter="url(#filter-3)"></path>
                        <path d="M20.1928883,91.8144153 C26.3619125,95.4058866 33.7302788,96.1218367 40.8391956,96.7576941 C66.4395201,99.0481483 92.0398446,101.339579 117.640169,103.63101 C132.597189,104.969143 148.467667,106.653042 160.31423,115.884208 C190.183233,139.156981 173.838893,188.970698 192.07183,222.160307 C208.396589,251.876631 251.604535,262.543009 271.95098,258.793834 C271.95098,254.655236 269.684109,5.96584656 271.95098,5.96584656 C215.506514,6.07817161 170.536541,2.70842018 114.187043,5.96584656 C69.8368402,8.52978786 0.366627302,-20.5066426 0.366627302,51.8206604 C0.366627302,66.0666364 7.60909722,84.487892 20.1928883,91.8144153 Z" id="Fill-65" fill="#3517D0"></path>
                    </g>
                </g>
                <g id="Brackets" transform="translate(521.551756, 41.849680)">
                    <g transform="translate(34.500000, 36.500000) rotate(20.000000) translate(-34.500000, -36.500000) translate(9.000000, 7.000000)" id="Group-7">
                        <g transform="translate(0.000000, 0.961957)">
                            <path d="M41.267669,48.1886421 L41.2602859,47.9639346 L48.7289501,43.1653745 L49.1830354,53.0058035 C49.199756,53.3681545 49.0189449,53.7111482 48.7105428,53.9021089 L42.3346332,57.8500319 C42.2791172,57.8844071 42.2175941,57.9074615 42.1536007,57.9181259 C42.0282398,57.9477001 41.8915674,57.9291257 41.7737241,57.8554515 L3.32279401,33.8164198 C3.17397569,33.7233805 3.08483517,33.5591258 3.08792822,33.3836446 L3.25336089,23.9980034 L41.267669,48.1886421 Z" id="Combined-Shape" fill="#0D0056"></path>
                            <polygon id="Fill-2" fill="#F3313E" points="19.071005 12.8447008 18.078441 13.3946193 19.0678196 12.8414943"></polygon>
                            <path d="M16.1622446,23.9948832 L25.0864013,28.6360027 L48.3684385,15.1495683 C48.9838928,14.7930581 49.3637038,14.1365102 49.3659463,13.4252589 L49.393238,4.76929374 L16.1622446,23.9948832 Z" id="Fill-4" fill="#24195F"></path>
                            <path d="M40.4765107,0.969339717 L19.070989,12.8447168 L18.0784251,13.3946353 L17.5926548,13.6665484 L8.64142245,18.6700049 L4.74180158,20.8377214 C3.29364914,21.6427186 2.77226881,23.4692573 3.57726602,24.9174097 C3.83202637,25.3757117 4.20245864,25.7592369 4.65163884,26.0297562 L8.3607906,28.2635973 L40.9294911,47.9702126 C41.2368473,48.1561872 41.6203416,48.1630073 41.9341161,47.988079 L48.3288131,44.4230558 C48.8111987,44.1541274 48.98424,43.5450669 48.7153115,43.0626813 C48.630719,42.910945 48.5080567,42.7838636 48.3594081,42.6939561 L16.8294381,23.6236 L25.2268924,18.9500946 L25.2504642,18.9666082 L48.8925998,5.78344962 C49.3749616,5.51447845 49.547949,4.9054027 49.2789778,4.42304084 C49.1884948,4.26077226 49.0545951,4.12691934 48.892295,4.03649292 L43.3920182,0.971983773 C42.4859793,0.467179223 41.3834638,0.466179358 40.4765107,0.969339717 Z" id="Fill-5" fill="#6EEBFF"></path>
                            <polygon id="Fill-6" fill="#F3313E" points="18.0784728 13.3946353 17.5925433 13.6665484 17.5911099 13.6649451"></polygon>
                        </g>
                    </g>
                    <g transform="translate(104.500000, 60.500000) scale(-1, 1) rotate(-20.000000) translate(-104.500000, -60.500000) translate(79.000000, 31.000000)" id="Group-7">
                        <g transform="translate(0.000000, 0.961957)">
                            <path d="M41.267669,48.1886421 L41.2602859,47.9639346 L48.7289501,43.1653745 L49.1830354,53.0058035 C49.199756,53.3681545 49.0189449,53.7111482 48.7105428,53.9021089 L42.3346332,57.8500319 C42.2791172,57.8844071 42.2175941,57.9074615 42.1536007,57.9181259 C42.0282398,57.9477001 41.8915674,57.9291257 41.7737241,57.8554515 L3.32279401,33.8164198 C3.17397569,33.7233805 3.08483517,33.5591258 3.08792822,33.3836446 L3.25336089,23.9980034 L41.267669,48.1886421 Z" id="Combined-Shape" fill="#0D0056"></path>
                            <path d="M16.1622446,23.9948832 L25.0864013,28.6360027 L48.3684385,15.1495683 C48.9838928,14.7930581 49.3637038,14.1365102 49.3659463,13.4252589 L49.393238,4.76929374 L16.1622446,23.9948832 Z" id="Fill-4" fill="#24195F"></path>
                            <path d="M40.4765107,0.969339717 L19.070989,12.8447168 L18.0784251,13.3946353 L17.5926548,13.6665484 L8.64142245,18.6700049 L4.74180158,20.8377214 C3.29364914,21.6427186 2.77226881,23.4692573 3.57726602,24.9174097 C3.83202637,25.3757117 4.20245864,25.7592369 4.65163884,26.0297562 L8.3607906,28.2635973 L40.9294911,47.9702126 C41.2368473,48.1561872 41.6203416,48.1630073 41.9341161,47.988079 L48.3288131,44.4230558 C48.8111987,44.1541274 48.98424,43.5450669 48.7153115,43.0626813 C48.630719,42.910945 48.5080567,42.7838636 48.3594081,42.6939561 L16.8294381,23.6236 L25.2268924,18.9500946 L25.2504642,18.9666082 L48.8925998,5.78344962 C49.3749616,5.51447845 49.547949,4.9054027 49.2789778,4.42304084 C49.1884948,4.26077226 49.0545951,4.12691934 48.892295,4.03649292 L43.3920182,0.971983773 C42.4859793,0.467179223 41.3834638,0.466179358 40.4765107,0.969339717 Z" id="Fill-5" fill="#6EEBFF"></path>
                        </g>
                    </g>
                </g>
                <g id="Cog" transform="translate(251.331984, 90.858054) rotate(350.000000) translate(-251.331984, -90.858054) translate(207.629281, 48.858054)">
                    <polygon id="Fill-1" fill="#DB004F" points="49.6581975 10.4587226 37.7564948 24.0504645 43.8584846 15.2286581 55.7610978 1.63691613"></polygon>
                    <polygon id="Fill-2" fill="#A6003B" points="86.2132321 29.3814839 74.3115294 42.9723226 64.7979973 48.6789032 76.6997 35.0871613"></polygon>
                    <polygon id="Fill-3" fill="#DB004F" points="30.2884312 15.822529 18.3858181 29.4151742 15.4185867 18.5276903 27.3202894 4.93594839"></polygon>
                    <g id="Group-8" transform="translate(23.672297, 20.384542)" fill="#A6003B">
                        <path d="M40.5037559,10.0193032 C36.5905431,2.25065806 26.8694231,-1.78405161 18.7907965,1.0060129 C16.3352508,1.85594839 14.3130904,3.23698065 12.7980633,4.96665806 L0.895450169,18.5584 C2.4104772,16.8278194 4.4317272,15.4476903 6.88909375,14.5977548 C14.9677204,11.8067871 24.6888404,15.8424 28.6011427,23.6110452 C31.3261883,29.0204645 30.5158674,34.8173677 27.0451444,38.7816258 L38.9477576,25.1898839 C42.419391,21.2256258 43.2288015,15.4287226 40.5037559,10.0193032" id="Fill-4"></path>
                        <polygon id="Fill-6" points="59.2644157 35.2108129 47.362713 48.8016516 32.3426947 44.4775806 44.2462183 30.8867419"></polygon>
                    </g>
                    <g id="Group-11" transform="translate(56.449324, 52.900671)">
                        <mask id="mask-5" fill="white">
                            <use xlink:href="#path-4"></use>
                        </mask>
                        <g id="Clip-10"></g>
                        <path d="M14.6254736,0.0802967742 L2.72286047,13.6711355 C2.02543818,14.4199097 1.26883514,15.1298452 0.458514189,15.7882968 L12.3620378,2.19745806 C13.1705378,1.53810323 13.9280514,0.828167742 14.6254736,0.0802967742" id="Fill-9" fill="#005A7C" mask="url(#mask-5)"></path>
                    </g>
                    <g id="Group-19" transform="translate(0.000000, 14.965187)">
                        <polygon id="Fill-12" fill="#DB004F" points="22.199152 17.7276129 10.2965389 31.3193548 0 24.7366452 11.9026132 11.1449032"></polygon>
                        <g id="Group-16">
                            <mask id="mask-7" fill="white">
                                <use xlink:href="#path-6"></use>
                            </mask>
                            <g id="Clip-15"></g>
                            <polygon id="Fill-14" fill="#B30040" mask="url(#mask-7)" points="11.9025221 11.1448129 -9.10472973e-05 24.7365548 4.25090726 13.9484258 16.15261 0.357587097"></polygon>
                        </g>
                        <path d="M22.3902603,20.8641548 L10.4885576,34.4558968 C10.3528971,33.4054452 10.290985,32.3549935 10.2964478,31.3189935 L22.199061,17.7272516 C22.1926877,18.7632516 22.2564208,19.8137032 22.3902603,20.8641548" id="Fill-17" fill="#ED0055"></path>
                    </g>
                    <g id="Group-22" transform="translate(10.015203, 32.126477)">
                        <mask id="mask-9" fill="white">
                            <use xlink:href="#path-8"></use>
                        </mask>
                        <g id="Clip-21"></g>
                        <path d="M12.3750576,3.70286452 L0.473354899,17.2946065 C0.337694426,16.2441548 0.275782264,15.1937032 0.281245101,14.1577032 L12.1838583,0.56596129 C12.177485,1.60196129 12.2412181,2.6524129 12.3750576,3.70286452" id="Fill-20" fill="#ED0055" mask="url(#mask-9)"></path>
                    </g>
                    <path d="M52.8475843,60.6125032 L40.9458816,74.2042452 C39.805059,74.2196 38.6633258,74.1654065 37.5306975,74.0488903 L49.4324002,60.4580516 C50.5650285,60.5736645 51.7076721,60.6287613 52.8475843,60.6125032" id="Fill-23" fill="#ED0055"></path>
                    <g id="Group-27" transform="translate(37.329392, 60.126477)">
                        <mask id="mask-11" fill="white">
                            <use xlink:href="#path-10"></use>
                        </mask>
                        <g id="Clip-26"></g>
                        <path d="M15.5181924,0.486025806 L3.6164897,14.0777677 C2.47566706,14.0931226 1.33393395,14.038929 0.201305574,13.9224129 L12.1030083,0.331574194 C13.2356367,0.447187097 14.3782802,0.502283871 15.5181924,0.486025806" id="Fill-25" fill="#ED0055" mask="url(#mask-11)"></path>
                    </g>
                    <g id="Group-36" transform="translate(18.209459, 51.094219)">
                        <g id="Group-30" transform="translate(21.851351, 9.032258)">
                            <mask id="mask-13" fill="white">
                                <use xlink:href="#path-12"></use>
                            </mask>
                            <g id="Clip-29"></g>
                            <polygon id="Fill-28" fill="#DB004F" mask="url(#mask-13)" points="20.0394191 9.89312258 8.13771639 23.4839613 0.884888682 14.0777677 12.7865914 0.486025806"></polygon>
                        </g>
                        <g id="Group-33" transform="translate(29.135135, 14.451613)">
                            <mask id="mask-15" fill="white">
                                <use xlink:href="#path-14"></use>
                            </mask>
                            <g id="Clip-32"></g>
                            <polygon id="Fill-31" fill="#B30040" mask="url(#mask-15)" points="24.4272615 0.441045161 12.5255588 14.0318839 0.85329527 18.0647871 12.7559084 4.47394839"></polygon>
                        </g>
                        <path d="M14.4725142,2.41061935 L2.56990101,16.0023613 C1.6776375,15.277071 0.819971959,14.5021032 0.0105614865,13.6783613 L11.9131747,0.0866193548 C12.7216747,0.911264516 13.5802507,1.68623226 14.4725142,2.41061935" id="Fill-34" fill="#ED0055"></path>
                    </g>
                    <g id="Group-39" transform="translate(18.209459, 51.094219)">
                        <mask id="mask-17" fill="white">
                            <use xlink:href="#path-16"></use>
                        </mask>
                        <g id="Clip-38"></g>
                        <path d="M14.4725142,2.41061935 L2.56990101,16.0023613 C1.6776375,15.277071 0.819971959,14.5021032 0.0105614865,13.6783613 L11.9131747,0.0866193548 C12.7216747,0.911264516 13.5802507,1.68623226 14.4725142,2.41061935" id="Fill-37" fill="#ED0055" mask="url(#mask-17)"></path>
                    </g>
                    <g id="Group-44" transform="translate(0.910473, 41.158735)">
                        <polygon id="Fill-40" fill="#B30040" points="17.6222954 11.6060903 5.71968226 25.1978323 0.0665555743 13.9743484 11.9700792 0.382606452"></polygon>
                        <polygon id="Fill-42" fill="#DB004F" points="29.2126164 10.0219226 17.3090927 23.6136645 5.71968226 25.1979226 17.6222954 11.6061806"></polygon>
                    </g>
                    <g id="Group-47" transform="translate(11.836149, 0.513574)">
                        <mask id="mask-19" fill="white">
                            <use xlink:href="#path-18"></use>
                        </mask>
                        <g id="Clip-46"></g>
                        <path d="M27.1566774,0.389290323 L15.4844139,4.42219355 L18.4525557,15.3087742 C17.636772,15.9699355 16.8774375,16.6744516 16.1800152,17.4232258 L16.1800152,17.4232258 L4.31746284,14.8083871 L0.0655540541,25.5965161 L10.3630034,32.1792258 C10.3566301,33.2143226 10.4203632,34.2647742 10.5542027,35.316129 L10.5542027,35.316129 L1.04340203,41.028129 L6.69652872,52.2516129 L18.2868497,50.6664516 C19.0953497,51.492 19.9530152,52.2669677 20.8461892,52.9913548 L20.8461892,52.9913548 L19.2492196,63.6837419 L31.4941706,68.7661935 L37.5961605,59.9443871 C38.7287889,60.06 39.8714324,60.1150968 41.0113446,60.0988387 L41.0113446,60.0988387 L48.2641723,69.5059355 L59.9355253,65.4730323 L56.9746672,54.5837419 C57.7840777,53.9261935 58.5415912,53.2153548 59.238103,52.4674839 L59.238103,52.4674839 L71.1006554,55.0814194 L75.3616689,44.2978065 L65.0633091,37.7141935 C65.0696824,36.6781935 65.0023074,35.6304516 64.8630051,34.5736774 L64.8630051,34.5736774 L74.3774476,28.868 L68.7243209,17.6454194 L57.1321791,19.2233548 C56.3264105,18.404129 55.4742078,17.6273548 54.5810338,16.9020645 L54.5810338,16.9020645 L56.1770929,6.20967742 L43.9248581,1.1236129 L37.8219578,9.94541935 C36.6902399,9.82980645 35.5503277,9.78012903 34.4158784,9.79367742 L34.4158784,9.79367742 L27.1566774,0.389290323 Z M23.0786689,40.0002581 C19.1654561,32.2307097 22.5433108,23.6708387 30.6274003,20.8771613 L30.6274003,20.8771613 C38.706027,18.0861935 48.427147,22.1218065 52.3394493,29.8904516 L52.3394493,29.8904516 C56.2526622,37.6590968 52.8775389,46.2243871 44.7989122,49.0162581 L44.7989122,49.0162581 C43.0626402,49.616 41.250799,49.9005161 39.4362264,49.9005161 L39.4362264,49.9005161 C32.8052517,49.8996129 26.1506047,46.0988387 23.0786689,40.0002581 L23.0786689,40.0002581 Z" id="Fill-45" fill="url(#linearGradient-20)" mask="url(#mask-19)"></path>
                    </g>
                    <g id="Group-52" transform="translate(19.119932, 52.900671)">
                        <polygon id="Fill-48" fill="#DB004F" points="11.9660731 11.2964645 0.0634599662 24.8882065 1.65951909 14.1958194 13.5621323 0.604077419"></polygon>
                        <polygon id="Fill-50" fill="#B30040" points="24.2102958 16.3789161 12.3076826 29.9706581 0.0636420608 24.8882065 11.9662552 11.2964645"></polygon>
                    </g>
                </g>
                <g id="App-icon" transform="translate(544.000000, 350.907234)">
                    <path d="M60.3032608,29.1615262 L50.0245623,52.9349559 C47.1398343,59.6087365 39.3986529,62.6763339 32.7350843,59.7879649 L8.99072402,49.4962926 C2.32625588,46.6079236 -0.73747451,38.8569714 2.14725343,32.1840914 L12.4241529,8.41066168 C15.3088809,1.73778168 23.0509618,-1.32981574 29.7154299,1.55855329 L53.4597902,11.8484243 C60.1242583,14.7367933 63.1879887,22.4886462 60.3032608,29.1615262" id="Fill-150" fill="#6ED7FF"></path>
                    <path d="M56.4513799,31.6567636 L47.1837304,53.0930191 C44.2990025,59.7649985 36.5578211,62.8334965 29.8933529,59.9442268 L8.48501961,50.6657804 C1.82055147,47.7774114 -1.24407843,40.0264591 1.64064951,33.3535791 L10.908299,11.9182243 C13.793027,5.24534426 21.5351078,2.17774684 28.199576,5.06611587 L49.6079093,14.3445623 C56.2723775,17.2329314 59.3361078,24.9838836 56.4513799,31.6567636" id="Fill-152" fill="#4FBDC9"></path>
                    <path d="M37.8612108,23.5588828 L42.5872353,35.1555899 C42.9200539,35.9733757 42.4370172,36.9343641 41.4988284,37.2937215 L40.0218333,37.861128 C39.0836446,38.2213861 38.0492083,37.845817 37.7145907,37.0271306 L32.9903652,25.4313241 C32.6557475,24.611737 33.1504779,23.6426428 34.0823701,23.2832854 L35.5584657,22.715879 C36.4912574,22.3583228 37.5283922,22.741097 37.8612108,23.5588828" id="Fill-154" fill="#100A7C"></path>
                    <path d="M27.4913919,19.9590041 L36.9785218,43.2433835 C37.3931958,44.2584106 36.9767228,45.3797138 36.036735,45.7399719 L34.55974,46.3064777 C33.6206517,46.6676364 32.5205512,46.1299512 32.1076762,45.1149241 L22.6205463,21.8305448 C22.2058723,20.8155177 22.634039,19.6825061 23.5659311,19.3240493 L25.0420267,18.7566428 C25.9739189,18.3990867 27.0776174,18.943977 27.4913919,19.9590041" id="Fill-156" fill="#100A7C"></path>
                    <path d="M22.1566691,28.7174181 L27.5006569,41.8326129 C27.8775515,42.7566748 27.4304951,43.8041252 26.4914069,44.1643832 L25.0153113,44.7317897 C24.0771225,45.0929484 23.0058064,44.6291161 22.6289118,43.7041535 L17.2858235,30.5889587 C16.9080294,29.6639961 17.3658799,28.6048374 18.2977721,28.2463806 L19.7756667,27.6798748 C20.7066593,27.3205174 21.7797745,27.7915548 22.1566691,28.7174181" id="Fill-158" fill="#100A7C"></path>
                </g>
                <g id="Diamond" transform="translate(457.000000, 166.907234)">
                    <g id="Group-3" transform="translate(0.000000, 0.037000)">
                        <mask id="mask-22" fill="white">
                            <use xlink:href="#path-21"></use>
                        </mask>
                        <g id="Clip-2"></g>
                        <polygon id="Stroke-1" stroke="#FFFFFF" stroke-width="3" mask="url(#mask-22)" points="6.2818 -13.9878 37.4608 4.0132 19.3498 35.3822 -11.8292 17.3812"></polygon>
                    </g>
                    <polygon id="Stroke-4" stroke="#FFFFFF" stroke-width="3" points="21.3734 0.5358 0.7214 5.6808 9.1044 23.7308 24.7774 16.0168"></polygon>
                    <g id="Group-7" transform="translate(21.000000, 0.037000)">
                        <mask id="mask-24" fill="white">
                            <use xlink:href="#path-23"></use>
                        </mask>
                        <g id="Clip-6"></g>
                        <polygon id="Stroke-5" stroke="#FFFFFF" stroke-width="3" mask="url(#mask-24)" points="0.4451 -10.6348 60.5651 24.0752 47.3251 47.0082 -12.7949 12.2982"></polygon>
                    </g>
                    <polygon id="Stroke-8" stroke="#FFFFFF" stroke-width="3" points="46.8929 9.868 22.6030533 0.348586574 21.2689 0.946 21.4769 1.892 24.5829 16.017 56.3539 34.36 71.1859 29.853 71.6699 29.629 71.7059 29.288"></polygon>
                    <g id="Group-11" transform="translate(53.000000, 29.037000)">
                        <mask id="mask-26" fill="white">
                            <use xlink:href="#path-25"></use>
                        </mask>
                        <g id="Clip-10"></g>
                        <polygon id="Stroke-9" stroke="#FFFFFF" stroke-width="3" mask="url(#mask-26)" points="7.5718 -11.6435 36.3958 4.9975 18.0278 36.8105 -10.7952 20.1695"></polygon>
                    </g>
                    <polygon id="Stroke-12" stroke="#FFFFFF" stroke-width="3" points="56.5494 34.3605 71.8274 29.7695 75.1924 48.9065 53.4344 49.9165"></polygon>
                    <g id="Group-15" transform="translate(9.000000, 15.037000)">
                        <mask id="mask-28" fill="white">
                            <use xlink:href="#path-27"></use>
                        </mask>
                        <g id="Clip-14"></g>
                        <polygon id="Stroke-13" stroke="#FFFFFF" stroke-width="3" mask="url(#mask-28)" points="5.5324 -10.7085 58.7784 20.0335 46.2644 41.7095 -6.9826 10.9675"></polygon>
                    </g>
                    <polygon id="Stroke-16" stroke="#FFFFFF" stroke-width="3" points="24.7177 15.9825 56.5497 34.3605 53 49.037 9.5287 23.9815 9.8217 23.3745"></polygon>
                    <g id="Group-19" transform="translate(9.000000, 23.037000)">
                        <mask id="mask-30" fill="white">
                            <use xlink:href="#path-29"></use>
                        </mask>
                        <g id="Clip-18"></g>
                        <polygon id="Stroke-17" stroke="#FFFFFF" stroke-width="3" mask="url(#mask-30)" points="-1.6522 -6.2644 51.5938 24.4776 25.3988 69.8496 -27.8482 39.1076"></polygon>
                    </g>
                    <polygon id="Stroke-20" stroke="#FFFFFF" stroke-width="3" points="9.1779 23.6027 53.5069 49.7897 12.0489 74.2097"></polygon>
                    <g id="Group-23" transform="translate(12.000000, 48.037000)">
                        <mask id="mask-32" fill="white">
                            <use xlink:href="#path-31"></use>
                        </mask>
                        <g id="Clip-22"></g>
                        <polygon id="Stroke-21" stroke="#FFFFFF" stroke-width="3" mask="url(#mask-32)" points="24.9661 -26.9852 69.9101 -1.0372 38.1621 53.9508 -6.7809 28.0028"></polygon>
                    </g>
                    <polygon id="Stroke-24" stroke="#FFFFFF" stroke-width="3" points="53.4671 49.7668 12.0491 74.2098 75.1921 49.6878 75.0081 48.9058 73.0751 48.9538"></polygon>
                    <g id="Group-27" transform="translate(0.000000, 5.037000)">
                        <mask id="mask-34" fill="white">
                            <use xlink:href="#path-33"></use>
                        </mask>
                        <g id="Clip-26"></g>
                        <polygon id="Stroke-25" stroke="#FFFFFF" stroke-width="3" mask="url(#mask-34)" points="-1.1091 -6.1863 45.7209 20.8507 13.8789 76.0027 -32.9511 48.9657"></polygon>
                    </g>
                    <polygon id="Stroke-28" stroke="#FFFFFF" stroke-width="3" points="9.2696 23.6557 0.8346 5.6967 0.6076 5.7727 12.0486 74.2097"></polygon>
                </g>
                <g id="Post-its" transform="translate(342.497423, 455.896924) rotate(-30.000000) translate(-342.497423, -455.896924) translate(242.497423, 231.896924)">
                    <path d="M33.2302532,425.615933 C33.2302532,425.615933 29.9021095,430.45447 45.6542053,432.268848 C35.0613909,433.066069 14.9560017,435.615933 14.9560017,435.615933 C-4.62363899,434.310282 -0.435615039,428.502672 -0.435615039,428.502672 L33.2302532,425.615933 Z" id="Shdow-2" fill="#E8E7F0" opacity="0.445661272" filter="url(#filter-35)" transform="translate(22.421313, 430.615933) rotate(33.000000) translate(-22.421313, -430.615933) "></path>
                    <g id="POSTIT3" transform="translate(164.003175, 0.435590)">
                        <path d="M5.61905307,5.68434189e-14 L34.749592,25.2725439 C34.749592,25.2725439 24.2681549,43.2849708 29.8945022,51.5161404 C35.5208495,59.7473099 1.73522074,28.1880994 1.73522074,28.1880994 C1.73522074,28.1880994 -4.09471938,3.13614035 5.61905307,5.68434189e-14" id="Fill-1" fill="#FBB644"></path>
                        <path d="M28.2882746,46.4558772 C26.7756998,46.1010234 18.4487537,38.6275146 16.4703106,37.3111988 C15.7122267,36.8076901 12.875101,34.3261111 12.132586,33.7027193 C10.2128255,32.0890936 7.57450217,29.1843275 6.41043032,27.8740058 C6.01761595,27.4316374 5.74575966,26.904152 5.61282553,26.3287135 C5.22120876,24.6251754 4.37809499,20.7877193 4.07869379,18.0771637 C3.6068375,13.7937427 3.21162792,4.83128655 5.99845427,0.329678363 L5.61881355,8.17124146e-14 C-4.0949589,3.13614035 1.73498122,28.1880994 1.73498122,28.1880994 C1.73498122,28.1880994 35.5074363,59.7509064 29.8942627,51.5161404 C28.7218076,49.7958187 28.526598,48.7696199 28.2882746,46.4558772" id="Fill-3" fill="#E0A33D"></path>
                    </g>
                    <g id="POSTIT1" transform="translate(125.660852, 260.049636) rotate(20.000000) translate(-125.660852, -260.049636) translate(102.160852, 239.549636)">
                        <path d="M34.0418466,7.10542736e-14 C34.0418466,7.10542736e-14 30.7137029,19.5433333 46.4657987,26.8717836 C35.8729843,30.0918421 15.7675951,40.3909942 15.7675951,40.3909942 C-3.8120456,35.1173392 0.375978356,11.6598246 0.375978356,11.6598246 L34.0418466,7.10542736e-14 Z" id="Fill-5" fill="#FBB644"></path>
                        <path d="M6.72663704,24.6986637 C4.91226578,19.522114 6.72903225,13.6850088 8.03921189,9.00597368 L0.375738835,11.6601842 C0.375738835,11.6601842 -3.81108751,35.1176988 15.7673556,40.3913538 C15.7673556,40.3913538 17.811667,39.3447749 20.9338227,37.8162661 C14.9889125,35.4689561 8.82005021,30.6724357 6.72663704,24.6986637" id="Fill-7" fill="#E0A33D"></path>
                    </g>
                    <g id="POSTIT2" transform="translate(73.757086, 124.885083) rotate(50.000000) translate(-73.757086, -124.885083) translate(53.257086, 104.385083)">
                        <path d="M11.5479042,0.910152047 C11.5479042,0.910152047 39.8005988,9.55851462 39.8125749,9.56211111 C40.6892216,9.82945029 40.597006,16.1916433 40.591018,16.8701813 C40.5491018,22.2912924 39.1622754,27.7112047 36.197006,32.282345 C34.1946108,35.3705322 30.8113772,39.6995088 27.0449102,40.567462 C24.9047904,41.0601813 22.660479,40.5362924 20.5946108,39.7906199 C17.0916168,38.5270526 13.5335329,37.3785731 10.1239521,35.8776374 C7.99101796,34.9377544 5.87365269,33.9235439 3.88562874,32.7031345 C3.61377246,32.5364971 0.177844311,29.7719942 0.319161677,29.716848 C11.5898204,25.2763801 11.5479042,0.910152047 11.5479042,0.910152047" id="Fill-9" fill="#FBB644"></path>
                        <path d="M39.8131737,9.56175146 C39.8095808,9.56055263 33.1616766,7.5249386 29.057485,6.26976316 C29.102994,6.43879825 32.7257485,7.70116667 32.7700599,7.86780409 C36.0215569,10.2354942 37.9568862,14.583652 38.1796407,18.5361959 C38.4431138,23.2200263 35.4227545,28.4421316 32.3640719,31.8144415 C30.2622754,34.1329795 27.4862275,35.9695877 24.3952096,36.610962 C20.8874251,37.3374532 17.4502994,36.1134474 14.2934132,34.6544708 C11.7784431,33.4916053 9.36047904,32.1165468 7.0754491,30.5484766 C6.26826347,29.994617 3.65508982,27.9721901 3.65508982,27.9721901 L0.318562874,29.7164883 C0.318562874,29.7164883 3.61317365,32.5361374 3.88502994,32.7027749 C5.8742515,33.9231842 7.99161677,34.9373947 10.1245509,35.8772778 C13.5341317,37.3782135 17.091018,38.526693 20.594012,39.7902602 C22.6598802,40.5359327 24.9053892,41.0610205 27.045509,40.5671023 C30.811976,39.6991491 34.194012,35.3701725 36.1976048,32.2831842 C39.1616766,27.7120439 40.548503,22.2909327 40.5916168,16.8698216 C40.5964072,16.1912836 40.6886228,9.82909064 39.8131737,9.56175146" id="Fill-12" fill="#E0A33D"></path>
                    </g>
                </g>
                <g id="Designer" transform="translate(0.000000, 269.907234)">
                    <ellipse id="Shadow" fill="#0E005E" opacity="0.0940290179" filter="url(#filter-36)" transform="translate(85.000000, 403.000000) rotate(2.000000) translate(-85.000000, -403.000000) " cx="85" cy="403" rx="84" ry="7"></ellipse>
                    <path d="M116.716032,51.899604 C119.92251,57.2853844 119.013198,64.1395721 117.26583,70.1598794 C115.518462,76.1809972 113.010769,82.1826659 113.328178,88.4444663 C113.778381,97.3019114 119.794575,105.009428 121.026154,113.793129 C122.09417,121.412315 119.088502,129.645768 112.916842,134.233325 C106.745992,138.820881 97.5443725,139.175017 91.4164372,134.529923 C84.0690688,128.959376 82.6690688,118.529796 82.9710931,109.309301 C83.46583,94.2289533 86.9654251,79.2693525 93.1152227,65.4993884 C96.4917409,57.9385501 106.828583,35.294123 116.716032,51.899604" id="Fill-1" fill="#1C0048"></path>
                    <path d="M198.718057,17.3168319 C196.726964,18.2884766 194.063806,17.5429277 192.367449,18.9683848 C191.440324,19.7479697 191.054089,21.013782 191.007935,22.225299 C190.961781,23.4351952 191.207935,24.6353669 191.320486,25.8428319 C191.4217,26.932792 191.414413,28.0381493 191.648421,29.1086603 C191.882429,30.1791713 192.396599,31.2431992 193.306721,31.8509836 C193.748016,32.1451513 194.285668,32.3226244 194.810364,32.2496902 C195.211174,32.1937741 195.578785,31.999283 195.935061,31.8088439 C198.390931,30.4968399 200.973117,29.0624687 202.348016,26.6410555 C202.867854,25.7253269 203.190121,24.6199697 202.867045,23.6183409 C202.734251,23.2099098 202.502672,22.8411872 202.254089,22.4927242 C200.580405,20.1434347 198.003887,18.4562251 195.183644,17.8622172 C194.446802,17.705814 193.573927,17.6620535 193.05004,18.2033868" id="Fill-3" fill="#F55707"></path>
                    <path d="M198.718057,17.3168319 C196.726964,18.2884766 194.063806,17.5429277 192.367449,18.9683848 C191.440324,19.7479697 191.054089,21.013782 191.007935,22.225299 C190.961781,23.4351952 191.207935,24.6353669 191.320486,25.8428319 C191.4217,26.932792 191.414413,28.0381493 191.648421,29.1086603 C191.882429,30.1791713 192.396599,31.2431992 193.306721,31.8509836 C193.748016,32.1451513 194.285668,32.3226244 194.810364,32.2496902 C195.211174,32.1937741 195.578785,31.999283 195.935061,31.8088439 C198.390931,30.4968399 200.973117,29.0624687 202.348016,26.6410555 C202.867854,25.7253269 203.190121,24.6199697 202.867045,23.6183409 C202.734251,23.2099098 202.502672,22.8411872 202.254089,22.4927242 C200.580405,20.1434347 198.003887,18.4562251 195.183644,17.8622172 C194.446802,17.705814 193.573927,17.6620535 193.05004,18.2033868" id="Fill-5" fill="#1C0048" opacity="0.456263951"></path>
                    <path d="M58.9378947,83.2092543 C56.4844534,85.4045717 53.0779757,86.1209469 50.185668,87.6922723 C43.325749,91.4208271 40.0488259,99.5991745 39.2617814,107.371522 C38.374332,116.139825 40.7484211,126.231478 48.3775709,130.630216 C51.9111741,132.666699 56.0909312,133.200739 60.1540891,133.54353 C73.4472065,134.665905 86.8755466,134.176436 100.052874,132.088899 C105.767045,131.184516 112.405911,129.155326 114.159757,123.637454 C115.451255,119.575023 113.40915,115.128472 110.516842,111.999598 C107.622915,108.871534 103.917652,106.612196 100.83587,103.669709 C95.4536842,98.531905 92.1338462,91.2895457 91.7532794,83.8559369 C91.137085,71.8201844 92.4504453,57.2293062 75.5808097,57.4472982 C60.6706883,57.6401685 67.0617814,75.9417733 58.9378947,83.2092543" id="Fill-7" fill="#1C0048"></path>
                    <path d="M141.395709,395.682414 C141.836194,397.735915 142.778704,399.746465 144.383563,401.098178 C145.604615,402.125739 147.137409,402.718126 148.690445,403.082797 C149.96251,403.381827 151.295304,403.53904 152.574656,403.275667 C153.854008,403.012294 155.081538,402.280521 155.715547,401.136266 C152.837004,399.834797 150.815142,397.083559 149.699352,394.125675 C148.583563,391.168601 148.260486,387.979759 147.947126,384.833867 C146.388421,387.673436 143.684777,387.172621 141.814332,388.983008 C140.259676,390.489503 140.978704,393.741555 141.395709,395.682414" id="Fill-9" fill="#F56507"></path>
                    <path d="M65.0982186,388.418188 C65.439919,387.446543 65.2650202,386.271493 64.6593522,385.475701 C64.0836437,390.257749 59.3694737,394.981449 55.6674494,397.469313 C59.597004,399.308874 66.1589474,399.424758 70.3063158,398.333178 C71.4909312,393.683222 70.4739271,388.751108 70.4739271,384 C68.228583,384.034036 65.9832389,384.068882 63.737085,384.102918" id="Fill-11" fill="#F56507"></path>
                    <path d="M88.980081,82.3299928 C89.2966802,88.0755816 86.174413,102.6462 81.2076113,105.544117 C80.8181377,105.772644 80.3889879,106.016568 80.228664,106.437154 C80.0497166,106.908795 80.2707692,107.430679 80.5072065,107.874767 C83.4262348,113.377242 89.5792713,116.996396 95.802753,116.871598 C102.025425,116.746799 108.028664,112.883721 110.72583,107.269414 C111.061862,106.569246 111.490202,106.690803 110.729069,106.540883 C107.592227,105.925805 105.251336,103.11622 104.261862,100.074867 C103.271579,97.0335138 103.387368,84.9896575 103.512874,81.7935218" id="Fill-13" fill="#F55707"></path>
                    <g id="Group-17" transform="translate(8.000000, 205.025948)">
                        <mask id="mask-38" fill="white">
                            <use xlink:href="#path-37"></use>
                        </mask>
                        <g id="Clip-16"></g>
                        <path d="M2.64315789,24.2098367 C2.93789474,24.7122719 3.38323887,25.2738647 3.95975709,25.1920164 C4.7217004,25.0818048 4.84720648,24.043709 4.77433198,23.2770902 C4.41481781,19.4950503 4.05692308,15.7130104 3.69740891,11.9309705 C5.58647773,12.2364834 6.95004049,14.3799365 6.428583,16.2227389 C6.93708502,16.7089665 7.82615385,16.5606671 8.331417,16.0703876 C8.83668016,15.5817289 9.03587045,14.8580603 9.13951417,14.1619445 C9.46421053,11.9779725 9.05044534,9.75915409 9.05125506,7.55168104 C9.05125506,5.35717405 9.62453441,3.28665509 11.1046964,1.63996447 C8.13708502,0.820671058 6.74437247,0.0289305389 5.00024291,0.960056287 C-1.23052632,4.2818008 -1.18356275,17.6895253 2.64315789,24.2098367" id="Fill-15" fill="#F56507" mask="url(#mask-38)"></path>
                    </g>
                    <path d="M148.288518,387.84469 C146.566478,389.601068 146.080113,390.796234 140.861489,391.275978 C127.355417,374.433056 114.413441,353.513925 111.250688,332.150707 C110.026397,323.884839 109.648259,315.496603 108.083887,307.287461 C106.259595,297.717693 102.849879,288.531234 100.377814,279.107334 C93.8182996,254.09903 93.9591903,227.886503 94.142996,202.031354 C94.1672874,198.679625 115.21587,195.159338 118.092794,195.841677 C125.377814,197.569406 126.836113,200.907358 130.242591,207.593797 C138.835304,224.456978 140.605344,245.085992 142.463644,263.609641 C146.566478,304.503809 145.629409,346.830586 148.288518,387.84469 Z" id="Fill-18" fill="#3517D0"></path>
                    <path d="M70.7495547,389.19549 C68.6337652,389.150109 66.5179757,389.106348 64.402996,389.061777 C38.6920648,329.6626 36.1382186,260.572907 57.3948988,199.435466 C59.1527935,194.381941 99.6224291,196.513238 101.981943,205.099206 C103.778704,211.638156 96.5940891,227.48026 95.0442915,234.284204 C92.6782996,244.672456 90.457247,255.094743 88.3819433,265.547015 C80.268583,306.402284 74.3762753,347.69921 70.7495547,389.19549" id="Fill-20" fill="#3517D0"></path>
                    <path d="M196.652632,15.1729737 C196.706883,15.9938878 197.37004,16.6154487 198.134413,16.5627741 C198.897976,16.509289 199.473684,15.8010176 199.419433,14.9809138 C199.365992,14.1599996 198.702024,13.536818 197.937652,13.5911134 C197.174089,13.643788 196.598381,14.3520595 196.652632,15.1729737" id="Fill-22" fill="#1D171D"></path>
                    <path d="M196.547449,13.8316339 L199.965263,10.5382527 C199.799271,10.9685641 199.295628,11.9223804 199.484291,12.3924004 C199.941781,13.5285521 201.647045,12.8721449 201.696437,12.8364882 L177.612227,39.3229234 L176.399271,37.7929273 L196.547449,13.8316339 Z" id="Fill-24" fill="#1D171D"></path>
                    <path d="M195.832227,14.7638132 C196.36502,15.6552303 196.918866,16.5328711 197.477571,17.4064599 L201.696194,12.8367313 C201.646802,12.872388 199.941538,13.5287952 199.484858,12.3918331 C199.295385,11.9218132 199.799028,10.9679968 199.96502,10.5376854 L196.547206,13.831877 L195.803077,14.7322084 C195.812794,14.7451745 195.82413,14.7492263 195.832227,14.7638132" id="Fill-26" fill="#C2CBD2"></path>
                    <path d="M197.164211,17.0770407 C196.792551,17.3088092 196.318866,17.2861186 195.887287,17.2099429 C195.455709,17.1345776 195.019271,17.0154519 194.586073,17.081903 C194.152874,17.1483541 193.717247,17.470885 193.701053,17.9084898 C193.689717,18.1799669 194.676761,18.8379948 195.643563,19.0892124 C195.916437,19.1597154 196.577976,19.1378351 196.849231,19.0608491 C197.197409,18.9636036 197.556113,18.917412 197.914008,18.8712204 C198.403077,18.8080108 198.892955,18.7448012 199.382024,18.6807812 C199.700243,18.6402623 200.067854,18.6135198 200.297814,18.8388052 C200.502672,19.0397792 200.514008,19.3623102 200.641943,19.6200108 C200.888907,20.1151525 201.504291,20.2756076 202.047611,20.383388 C202.119676,20.3987852 202.196599,20.4117513 202.265425,20.3858192 C202.407935,20.3315238 202.436275,20.1451365 202.438704,19.9927852 C202.45004,19.1848371 202.681619,18.782889 202.535061,17.9887174 C202.410364,17.3088092 201.440324,15.8444539 201.440324,15.8444539 C201.440324,15.8444539 199.924534,15.9587174 199.332632,16.239919 L197.164211,17.0770407 Z" id="Fill-28" fill="#F56507"></path>
                    <path d="M195.260162,20.2457856 C195.249636,20.5172627 195.582429,20.971075 195.582429,20.971075 C195.582429,20.971075 196.759757,21.5488754 197.390526,21.5067357 C197.671498,21.4872866 198.40915,21.3981449 198.40915,21.3981449 C198.40915,21.3981449 199.116032,21.2538974 199.473927,21.2077058 C199.962996,21.1436858 200.452065,21.0804762 200.941943,21.0172667 C201.260162,20.9759373 201.627773,20.9508156 201.856923,21.1752906 C202.061781,21.3762647 202.073927,21.699606 202.201862,21.9564962 C202.448016,22.4524483 203.064211,22.6129034 203.606721,22.7206838 C203.678785,22.7344603 203.756518,22.7490471 203.825344,22.723115 C203.967045,22.6671988 203.996194,22.4824323 203.998623,22.3292707 C204.00996,21.5213226 203.911984,20.7149952 203.765425,19.9200132 C203.640729,19.2409154 203.20834,18.5764044 203.20834,18.5764044 C203.20834,18.5764044 201.484453,18.2952028 200.892551,18.5764044 C200.892551,18.5764044 195.277166,19.8081808 195.260162,20.2457856" id="Fill-30" fill="#F56507"></path>
                    <path d="M195.550688,40.0035609 C195.960405,38.3025749 195.964453,36.4314092 196.427611,34.7709421 C196.727206,33.691517 197.694818,33.4370579 198.580648,32.8106347 C199.761215,31.9751337 200.863239,31.0051098 201.784696,29.8827345 C202.651093,28.8211377 204.691579,25.1468782 204.710202,25.0731337 C204.820324,24.6193214 205.334494,24.1168862 205.43004,23.6630739 C205.502105,23.3267665 204.034899,22.4483154 203.856761,22.3551218 C203.078623,21.9612774 202.299676,21.5682435 201.528826,21.1743992 C201.284291,21.0471697 201.03166,20.9207505 200.761215,20.8680758 C200.43166,20.8024351 200.093198,20.8461956 199.762024,20.8972495 C198.465668,21.071481 197.168502,21.2513852 195.871336,21.4329102 C195.569312,21.4758603 195.068097,21.447497 194.868097,21.6808862 C194.625992,21.9531737 195.581457,22.8972655 195.581457,22.8972655 C195.581457,22.8972655 197.366073,23.4191497 198.046235,23.3891657 C198.704534,23.3526986 199.362834,23.3308184 200.021943,23.323525 C200.239757,23.3210938 200.464049,23.3178523 200.677004,23.3737685 C200.845425,23.4167186 201.008988,23.5042395 201.164453,23.5844671 C201.579838,23.7984072 201.987935,24.0123473 202.40332,24.225477 C202.529636,24.2927385 202.678623,24.3810699 202.685101,24.524507 C202.68915,24.6193214 202.642186,24.7084631 202.587126,24.7838283 C202.017085,25.6428303 201.107773,26.3940519 200.394413,27.1371697 C199.88915,27.6744511 199.376599,28.2125429 198.855951,28.7360479 C198.190364,29.4183872 197.485101,29.8568024 196.634899,30.3073733 C196.025992,30.6323353 195.380648,30.9370379 194.694818,31.0099721 C194.406559,31.0448184 194.108583,31.0367146 193.842996,30.9248822 C193.584696,30.8130499 193.379838,30.6193693 193.175789,30.4248782 C192.758785,30.0083433 192.333684,29.584515 192.106964,29.043992 C191.77336,28.2238882 191.879433,27.1817405 191.884291,26.3178762 C191.88915,25.7668184 191.824372,25.1241876 191.937733,24.5820439 C191.937733,24.5820439 192.542591,21.5512255 193.008178,20.4361437 C193.472955,19.3202515 192.810607,18.1087345 193.639757,17.6800439 C194.447045,17.2602675 195.822753,15.921521 195.992794,15.022 C196.144211,14.1816367 195.310202,13.5074012 194.524777,13.9409541 C194.227611,14.1070818 194.040567,14.4628383 193.834089,14.7189182 C193.54502,15.0657605 193.218704,15.3850499 192.815466,15.6062834 C192.348259,15.8664152 191.787935,15.9782475 191.391174,16.3364351 C190.930445,16.7416248 190.770121,17.3793932 190.702915,17.9847465 C190.635709,18.5900998 190.642186,19.2205749 190.427611,19.7894611 C190.272146,20.2092375 189.999271,20.5763393 189.821943,20.9985469 C189.651093,21.4053573 189.753927,22.0747305 189.758785,22.5099042 C189.74502,23.5115329 189.760405,24.5123513 189.775789,25.5123593 C189.793603,26.5634212 189.817895,27.6071896 189.842996,28.6582515 C189.866478,29.526978 190.018704,30.3397884 190.078623,31.1866347 C190.185506,32.6185749 189.711822,34.191521 189.396032,35.5764591 C189.195223,36.4484271 188.996032,37.3357924 188.529636,38.1032216 C188.184696,38.6631936 184.668907,42.4030938 184.336923,43.0927265 C183.613846,44.6113772 185.285101,49.6008822 186.636518,51.3107824 C186.681862,51.5117565 186.755547,51.7038164 186.906964,51.8423912 C187.263239,52.1965269 187.85919,52.0757804 188.313441,51.8529261 C189.511822,51.2694531 191.120729,49.6243832 192.352308,47.9736407 C193.125587,46.937976 193.74664,45.901501 194.016275,45.1211058" id="Fill-32" fill="#F56507"></path>
                    <path d="M205.386161,0.918159681 C206.177255,2.18316168 204.599117,4.74396008 203.135149,5.02110978 C201.671182,5.29825948 199.973206,5.13780439 198.899522,6.1718483 C198.233935,6.8120479 197.984542,7.78855489 198.000736,8.71238723 C198.056607,11.9433693 201.310858,14.6362595 204.530291,14.391525 C205.302761,14.3331776 206.080898,14.1265309 206.709238,13.6735289 C208.136769,12.6451577 208.450939,10.6556766 208.387781,8.89553293 C208.36187,8.15727745 208.280898,7.40848703 208.137578,6.6718523 C207.709238,4.46356886 206.716526,1.31686627 204.935149,1.13686838e-13" id="Fill-34" fill="#0B004B"></path>
                    <path d="M58.1997571,154.316062 C52.2604858,159.235874 47.8556275,165.719719 43.53417,172.110369 C35.1503644,184.509172 26.7665587,196.908784 18.382753,209.306776 C16.711498,207.602549 14.4272874,206.513399 12.0523887,206.288114 C14.1495547,193.596764 17.3932794,181.034265 22.6531984,169.296733 C27.2280972,159.087575 33.2718219,149.615862 39.2920648,140.1871 C48.8653441,125.195084 60.3098785,108.876477 77.7592713,105.476936 C77.4046154,116.247687 75.8135223,126.933347 73.1268826,137.364549 C70.6451012,147.001579 65.5876113,148.195267 58.1997571,154.316062" id="Fill-36" fill="#6ED7FF"></path>
                    <path d="M195.509636,41.2705078 C192.733117,55.8759729 188.580081,70.306396 182.002753,83.7497772 C176.274818,95.4476016 173.757409,113.391829 166.308016,124.153665 C154.453765,141.28022 135.350931,152.773019 114.204372,156.382448 C114.218947,156.075314 114.234332,155.760887 114.257814,155.453753 C111.917733,154.6142 110.624615,151.999107 109.729879,149.660352 C107.259433,143.208923 105.072389,136.574348 104.552551,129.720971 C104.086154,123.620436 104.766316,114.940464 109.202753,110.074137 C114.142834,104.667286 116.184939,108.277526 124.284534,108.437981 C125.255385,108.459861 126.257814,108.446085 127.197895,108.643007 C130.287773,105.989825 134.150121,103.929841 138.762267,100.393346 C146.027045,94.8260407 151.472389,87.4248471 156.818138,80.1330547 C167.1817,65.9805916 177.551741,51.8281285 187.915304,37.6756655 C189.903968,39.6700088 192.641619,40.9714778 195.509636,41.2705078" id="Fill-38" fill="#6EEBFF"></path>
                    <path d="M135.103482,205.449857 C135.877571,209.927203 136.588502,214.824325 134.416032,218.787889 C131.989312,223.216612 126.728583,225.053742 121.842753,225.913554 C111.267854,227.774995 100.217652,226.736899 90.1439676,222.93541 C82.4192713,220.020476 74.8508502,215.438592 66.6378947,215.956424 C61.8646154,216.257075 56.6208907,218.189019 52.6087449,215.517199 C48.1876923,212.57147 48.2241296,205.919877 49.6192713,200.71157 C54.4265587,182.765722 65.6548988,175.635195 66.2929555,157.032939 C66.4727126,151.790596 64.2136032,146.933183 64.1026721,141.689219 C63.8783806,131.07244 61.9123887,103.696209 80.1634008,105.888285 C86.9593522,112.926428 87.6775709,113.407794 94.097004,113.170352 C100.515628,112.933722 106.498623,109.975838 112.262996,107.076301 C120.915628,138.039271 134.503482,172.887199 135.103482,205.449857" id="Fill-40" fill="#6EEBFF"></path>
                    <path d="M127.615951,152.648626 C129.372227,151.829332 151.494494,142.724721 150.24753,140.227943 C145.866964,131.46045 132.726073,140.958095 126.886397,137.304905 C124.632146,135.895655 124.735789,145.145324 121.167368,148.018929 C119.829717,149.095113 119.056437,150.722354 119.022429,152.439548 C118.911498,158.08465 124.124453,176.71851 125.425668,189.910673 C126.87587,204.610953 126.686397,212.120737 127.593279,223.946602 C128.73336,223.696194 129.807045,223.261021 130.755223,222.487919 C131.175466,222.077867 131.596518,221.667815 132.026478,221.268298 C132.87749,220.342035 133.654008,219.329061 134.479919,218.390642 C134.744696,217.363081 134.981943,216.246378 135.241053,215.055931 C136.097733,211.123971 134.490445,190.878266 133.456437,186.988446 C129.560081,172.334358 132.726073,172.376498 129.806235,162.147081 C128.216761,156.581396 123.522024,154.557879 127.615951,152.648626" id="Fill-42" fill="#6ED7FF"></path>
                    <path d="M154.006883,131.20202 C157.009312,129.696335 160.010931,128.18984 163.012551,126.684156 C158.632794,132.736068 153.163158,137.994619 146.944534,142.130794 C146.121053,142.678611 145.264372,143.215082 144.303239,143.448471 C139.980972,144.497102 138.18664,140.624299 140.736437,137.859285 C143.4417,134.925713 150.398785,133.012407 154.006883,131.20202" id="Fill-44" fill="#6ED7FF"></path>
                    <path d="M89.1560324,95.9956611 C89.7325506,98.9527349 91.7568421,101.263126 94.8078543,102.347414 C98.1479352,103.53543 101.263725,102.834451 104.432955,101.59133 C104.155223,96.8327828 104.236194,90.4704954 104.322024,88.2767988 L89.7900405,88.8132699 C89.8872065,90.5750343 89.6596761,93.1666271 89.1560324,95.9956611" id="Fill-46" fill="#1C0048" opacity="0.456263951"></path>
                    <path d="M151.183401,405.502103 C154.292713,405.668231 157.402834,405.834358 160.512146,405.999676 C160.025506,402.63255 157.006883,399.805947 153.616599,399.543384 C153.903239,400.472889 153.342105,401.519089 152.496761,402.000454 C151.651417,402.480199 150.604453,402.479388 149.661943,402.242758 C148.425236,401.931572 145.950718,400.394684 142.238388,397.632094 C142.77393,401.277998 143.506478,403.392956 144.436032,403.976969 C146.410931,405.21847 148.853846,405.378115 151.183401,405.502103 Z" id="Fill-48" fill="#3517D0"></path>
                    <path d="M71.9044534,399.678002 C71.9036437,399.921926 71.8931174,400.191782 71.7246964,400.368445 C71.5740891,400.524848 71.340081,400.561315 71.1246964,400.588058 C64.1230769,401.462457 57.0502024,401.759056 50,401.474613 C51.4089069,399.505391 53.3360324,397.911375 55.5336032,396.898401 C55.9789474,396.693375 56.4712551,396.508609 56.9489879,396.61801 C57.3967611,396.719307 57.7441296,397.058856 58.1052632,397.340868 C59.9473684,398.783343 62.5554656,398.912194 64.7967611,398.24201 C67.0251012,397.574257 68.9530364,396.174733 70.902834,394.982665 C71.6097166,396.392725 71.908502,398.058864 71.9044534,399.678002" id="Fill-50" fill="#3517D0"></path>
                    <path d="M105.499433,49.0593868 C111.96502,58.5862052 111.701862,71.2418978 108.854089,82.4000096 C107.649231,87.1196583 105.525344,92.2825844 100.977166,94.0151752 C97.5423482,95.3239377 93.6006478,94.2315465 90.4824291,92.2842052 C85.6338462,89.2566283 82.1779757,84.249295 80.5026721,78.7800455 C78.8281781,73.310796 78.8508502,67.4104248 79.9860729,61.8042212 C81.2217004,55.7028758 84.1585425,49.4345924 89.6986235,46.6063689 C93.4492308,44.6906323 98.1042915,44.6614587 101.877571,46.5301932 C105.65166,48.3981174 108.454089,52.1177581 109.209555,56.2636583" id="Fill-52" fill="#F56507"></path>
                    <path d="M201.374016,6.00567265 C201.36106,6.00567265 201.352963,6 201.341627,6 C200.426647,6.11264271 199.548915,6.29902994 198.899522,6.92464271 C198.233935,7.56484232 197.984542,8.54053892 198.000736,9.46518164 C198.057417,12.6961637 201.310858,15.3882435 204.531101,15.143509 C205.30357,15.0851617 206.080898,14.878515 206.710048,14.4263234 C208.037174,13.4692655 208.396688,11.6831896 208.39102,10.0219122 C206.7894,7.63129341 204.408024,5.90275449 201.374016,6.00567265" id="Fill-54" fill="#9A92C5"></path>
                    <path d="M104.177652,44.1163166 C105.537166,49.6803804 102.082105,55.9972866 96.6659109,57.8498136 C92.1565992,59.3927756 86.9622672,58.0880651 82.6165182,60.0426998 C76.9671255,62.5832387 74.9306883,69.4633585 73.8359514,75.5647038 C68.9347368,68.4609194 68.1614575,58.7055741 71.8845344,50.9186399 C76.5234008,41.2135381 99.7889879,26.1502088 104.177652,44.1163166" id="Fill-56" fill="#1C0048"></path>
                </g>
            </g>
        </g>
    </g>
</svg>