<?xml version="1.0" encoding="UTF-8"?>
<svg width="1146px" height="468px" viewBox="0 0 1146 468" version="1.1" xmlns="http://www.w3.org/2000/svg" xmlns:xlink="http://www.w3.org/1999/xlink">
    <!-- Generator: Sketch 54.1 (76490) - https://sketchapp.com -->
    <title>Fill 1</title>
    <desc>Created with Sketch.</desc>
    <g id="Page-1" stroke="none" stroke-width="1" fill="none" fill-rule="evenodd">
        <g id="LANDING-V3" transform="translate(-148.000000, -2447.000000)" fill="#3517D0">
            <g id="Group-3" transform="translate(110.000000, 2447.000000)">
                <path d="M1090.12485,8.14584497 C1011.06388,-16.2021053 914.452979,19.5714936 839.284093,42.9570867 C749.494304,70.8920048 651.952368,58.5953916 561.074546,34.4349135 C467.387985,9.52845235 367.390356,1.96863641 273.584292,26.4212587 C178.109074,51.3081915 63.2359134,119.980035 42.1820955,223.145979 C22.9005319,317.627275 71.3871893,422.850726 165.019075,455.835677 C209.808915,471.614586 258.744689,468.797035 306.094886,465.183509 C340.919798,462.52609 375.847813,459.524973 409.939298,451.934693 C461.710367,440.408278 511.074169,418.406854 563.652086,411.439138 C700.035992,393.363695 844.193916,477.462156 971.469733,425.227718 C1004.61378,411.625048 1033.57908,389.568164 1060.60889,366.053684 C1115.88619,317.964725 1166.83557,258.896925 1180.91831,186.99353 C1195.00106,115.089354 1160.1449,29.7098333 1090.12485,8.14584497" id="Fill-1"></path>
            </g>
        </g>
    </g>
</svg>